<svg viewBox="240.89999999999986 197.0689655172414 1697.2500000000002 908.7068965517242" xmlns="http://www.w3.org/2000/svg" xmlns:xlink="http://www.w3.org/1999/xlink" xmlns:blush="http://design.blush" overflow="visible" width="999.9999999999999px" height="535.3995560770211px"><g id="Master/Scene/One Character" stroke="none" stroke-width="1" fill="none" fill-rule="evenodd" blush:i="0"><g id="Background" opacity=".4" transform="translate(99.000000, 75.000000) scale(1.0375 1.037037037037037)" blush:width="1992" blush:height="1120" blush:component="Background" blush:i="0.0"><g id="Background/Rocks" stroke="none" stroke-width="1" fill="none" fill-rule="evenodd" blush:i="0.0.0"><path d="M1259.24026,889.164029 C1260.25345,894.677537 1266.56217,902.297825 1259.24122,905.49541 C1240.82984,916.764188 1218.60289,918.726103 1197.44291,919.507991 C1184.72272,916.344943 1110.34733,918.359623 1111.7514,906.598688 C1115.1857,856.049403 1153.53834,817.29751 1195.31184,792.99567 C1212.49105,785.240111 1254.18387,872.307872 1259.24026,889.164029 Z M1191.02546,780.880242 C1194.76635,784.435056 1194.73761,784.726121 1190.25908,787.420145 C1173.11327,797.73149 1157.14959,809.541106 1143.2034,823.937863 C1121.33382,846.128489 1106.74483,874.075528 1104.44761,905.414193 C1103.95329,908.947057 1102.843,909.87274 1099.73438,909.388904 C1087.32861,906.210089 991.999667,896.131596 1000.23537,882.377091 C1012.97451,777.886564 1096.08066,688.975186 1191.02546,780.880242 Z M1325.73178,768.5977 C1314.03294,812.029513 1304.82584,859.557531 1272.88821,893.347392 C1267.30163,901.096141 1261.02115,867.65528 1257.20469,863.648955 C1245.63202,837.394618 1230.4178,813.372923 1211.8889,791.457656 C1207.40913,786.160511 1207.41869,786.105053 1213.71828,783.193535 C1237.41034,771.248185 1304.2323,755.160734 1325.73178,768.5977 Z M1235.84469,207.988261 C1233.0445,233.053919 1242.0845,253.393096 1261.196,269.552112 C1292.17453,297.243167 1337.12146,295.055974 1368.97044,270.292658 C1373.01112,267.915066 1373.02742,267.676828 1376.16314,271.067648 C1391.83599,288.009307 1409.42612,302.894852 1426.80631,317.990888 C1430.37438,321.088934 1432.01941,324.226208 1432.02517,329.012966 C1434.1639,364.538116 1431.17006,399.7858 1426.76797,435.021046 C1424.26975,472.976411 1418.76234,510.366321 1407.24713,546.762138 C1393.21739,588.465201 1370.27132,626.422479 1357.37374,668.586709 C1347.51889,696.431805 1337.19623,724.11712 1330.00545,752.794613 C1328.79756,763.999435 1314.15717,756.670519 1307.50227,757.676092 C1271.61261,757.101069 1238.2365,763.571756 1206.72784,778.838098 C1201.56267,781.340071 1201.5157,781.32859 1197.28329,777.224014 C1097.8289,679.55999 1006.76935,769.473159 992.872866,881.624709 C991.778096,886.891769 991.403267,887.233339 986.424077,885.737895 C968.353662,880.308183 950.312007,874.778966 932.291441,869.184687 C927.972756,867.844242 927.748434,867.60122 928.755967,863.007732 C943.923612,779.915429 901.63309,701.4214 859.731776,634.908139 C869.859836,516.984351 981.001035,492.52242 1080.80628,507.272102 C1084.47309,507.631851 1085.70782,510.372061 1086.89846,513.383997 C1112.00243,574.59671 1138.24432,641.050651 1190.30245,684.501746 C1296.31683,755.503251 1349.59531,621.776368 1209.92683,545.886687 C1174.17712,525.420259 1136.06341,510.973875 1095.64703,502.808735 C1091.5613,501.983036 1089.6373,500.178554 1088.36902,496.536101 C1070.68973,445.484366 1055.00058,377.888989 1099.76057,336.138088 C1102.39779,333.731792 1103.10719,333.842779 1104.70525,337.112087 C1151.10259,421.871096 1246.84895,491.185801 1345.81922,489.802301 C1467.40867,472.158367 1413.37381,372.306192 1333.03764,337.674673 C1265.59041,308.302559 1180.74862,280.482339 1111.4445,318.217645 C1099.41162,331.026026 1090.90367,264.085085 1089.28835,255.810873 C1090.06198,248.943124 1082.21645,231.109747 1092.04541,230.996848 C1138.39483,221.396542 1186.60784,220.513436 1231.26621,204.091306 C1235.39796,202.793916 1236.34798,203.480882 1235.84469,207.988261 Z M859.14704,650.507991 C904.913471,708.623799 932.880991,785.502317 922.610427,859.677172 C923.974321,871.818256 889.950074,851.259494 882.959396,850.809044 C870.574701,844.128956 869.0194,775.06432 865.428839,757.760304 C862.397108,721.956182 857.231048,686.562257 859.14704,650.507991 Z M739.254911,561.508887 C779.627571,579.878728 817.161783,604.925994 847.642039,637.243043 C855.091767,645.431939 850.180543,657.850476 851.573893,667.926325 C852.290692,725.004969 860.65271,781.777879 868.344886,838.263208 C871.803346,851.169964 851.088041,836.223388 845.473434,835.981667 C789.155825,816.122327 729.841651,799.516189 685.87158,756.867238 C671.370771,742.878948 642.579018,729.139067 660.347588,706.131621 C677.987747,680.071612 689.562904,650.709674 701.619121,621.833089 C709.605491,602.506873 718.093045,583.422378 728.524006,565.259862 C732.326491,558.408552 732.335116,558.388488 739.254911,561.508887 Z M1093.73178,509.507991 C1161.15722,524.593912 1230.36044,552.493831 1272.27132,609.261341 C1310.06993,657.211756 1273.93006,719.244087 1213.90172,689.951945 C1148.75799,653.344895 1120.71981,575.166221 1093.73178,509.507991 Z M1098.91572,320.57664 C1100.32406,324.113712 1100.03337,326.404378 1097.06606,329.076343 C1050.24721,370.369651 1063.08925,438.613495 1080.17455,491.196309 C1081.07348,494.505369 1084.70754,500.919426 1078.25583,499.230407 C982.151599,483.769607 866.150177,513.262773 854.787477,625.701819 C854.609036,627.817164 854.161013,632.202099 851.161084,629.816587 C820.150622,598.149635 783.869418,573.877769 743.733492,555.369454 C736.512364,552.012493 736.272523,551.952136 740.542649,545.590771 C765.548456,509.685464 788.536721,472.277954 815.032418,437.456186 C817.81841,433.98905 818.100462,433.975638 822.38402,435.685734 C899.537941,467.279875 1013.6734,425.400249 1018.34358,333.537921 C1022.31151,299.911783 983.072588,264.234488 996.437479,263.181606 C1119.19666,216.950576 1061.42379,220.250055 1098.91572,320.57664 Z M1185.94323,306.527457 C1261.01721,312.479732 1344.18608,334.350923 1394.70387,393.426458 C1434.26411,438.907987 1394.29328,481.03545 1343.1759,482.507991 C1247.70255,481.800865 1155.90922,414.902997 1111.41032,333.024586 C1103.03721,317.035911 1174.70746,305.979913 1185.94323,306.527457 Z M986.927572,271.861662 C1054.47849,356.83071 965.954516,441.511997 874.959507,439.471853 C864.619973,439.116214 825.793399,435.957527 824.731776,426.024491 C840.522575,410.149797 857.15883,395.073378 873.414629,379.664266 C891.741795,362.623229 908.555787,344.433057 919.903142,321.852846 C926.994398,307.740095 937.245544,296.487753 950.888118,288.363504 C959.287908,285.652235 980.781688,265.113124 986.927572,271.861662 Z M1401.60747,243.630978 C1418.53909,262.196633 1430.73806,285.882887 1431.73178,311.507991 C1414.79633,298.032174 1400.33847,282.592516 1384.19819,268.240997 C1381.44915,265.090968 1377.12129,262.444637 1381.81076,258.977394 C1386.98943,255.908111 1396.24848,237.884602 1401.60747,243.630978 Z M1313.7295,186.507991 C1313.75816,186.719358 1313.78777,186.928804 1313.81642,187.140171 C1350.1192,183.020429 1337.12773,221.110747 1357.55532,246.32495 C1359.31191,251.722503 1370.56399,258.394986 1365.37638,263.609034 C1350.05807,274.439689 1333.81992,283.429527 1314.45449,282.432257 C1274.22972,281.760686 1235.16072,245.708141 1243.99236,203.436594 C1245.5732,196.354827 1255.54915,198.823982 1260.87145,196.478765 C1278.38955,192.46855 1295.73094,187.680119 1313.7295,186.507991 Z M1346.73178,198.507991 C1351.11198,199.371185 1354.29888,201.46002 1356.43236,204.27947 C1363.95854,214.222896 1374.52318,220.61721 1383.74701,228.568135 C1386.88823,232.047619 1395.445,235.544271 1389.91241,240.507877 C1385.15252,243.910102 1375.83829,262.02669 1370.76247,253.025625 C1358.75235,236.850031 1349.55517,218.671446 1346.73178,198.507991 Z" id="Combined-Shape" fill="#F55B80" blush:i="0.0.0.0"/><path d="M544.913881,852.512799 C536.977727,852.242687 536.497138,863.443061 544.549228,863.503519 C552.566637,863.762904 552.889672,852.652243 544.913881,852.512799 M580.799842,872.497542 C588.925257,872.899253 588.536166,861.584408 580.656835,861.511549 C572.82022,861.278202 572.64564,872.600924 580.799842,872.497542 M571.7023,860.170212 C571.539655,851.185726 559.840538,853.676559 560.78615,862.156417 C561.203165,870.734159 572.378413,868.210064 571.7023,860.170212 M504.729802,853.9785 C504.906512,846.563978 493.162911,844.537161 492.771489,853.157683 C491.937343,861.416308 504.51794,861.545349 504.729802,853.9785 M607.722278,864.417114 C608.102803,855.91439 596.924757,857.038064 596.742325,864.908601 C596.33508,873.921121 607.854955,873.650322 607.722278,864.417114 M531.726924,855.776713 C532.00955,849.397829 519.85568,844.624196 518.761706,852.973373 C518.031109,859.954109 530.91077,864.355212 531.726924,855.776713 M629.655924,872.757246 C630.85813,863.442333 617.366401,863.032962 617.739372,871.94245 C617.431185,881.918276 629.786418,884.410999 629.655924,872.757246 M735.319645,945.261868 C637.899812,936.699669 536.032925,956.032373 441.294178,929.122333 C413.916402,921.897143 438.71573,862.07627 446.183443,844.228495 C457.648324,817.775576 478.284534,795.403348 488.061146,769.0764 C506.021066,745.345215 530.304321,773.122736 552.787075,773.989263 C594.308899,788.07032 628.423443,819.348303 667.103028,839.858643 C697.290427,859.185622 738.912972,872.533758 757.840769,904.143846 C760.090196,915.370518 762.17751,926.643953 759.403377,938.144516 C758.269551,949.961916 743.428132,943.622339 735.321563,945.134943 C735.320604,945.176933 735.320604,945.218923 735.319645,945.261868" id="Fill-5" fill="#52DC82" blush:i="0.0.0.1"/><path d="M1529.79795,766.538876 C1570.21747,804.455174 1603.98551,853.001906 1602.69603,910.618703 C1600.53283,917.070911 1605.05848,932.032829 1595.77534,933.851823 C1579.5351,935.574072 1562.98735,933.361394 1546.64365,933.362352 C1542.37762,933.216756 1540.93197,931.77612 1541.64282,928.259782 C1545.50361,902.01991 1535.40328,876.27813 1531.36813,850.583286 C1524.85843,820.644123 1502.8318,796.222288 1478.29805,778.955735 C1467.72925,774.776552 1493.016,758.026291 1496.19373,752.369115 C1506.89857,742.478157 1520.69491,760.963118 1529.79795,766.538876 Z M1659.46577,678.083835 C1748.50734,712.658563 1792.24624,776.660118 1748.74939,868.941651 C1724.76196,917.495676 1663.68732,926.561415 1615.06505,932.317653 C1611.75985,932.76434 1611.71567,932.667733 1611.88857,929.28745 C1622.66481,852.647616 1572.52585,780.433523 1510.73178,739.441614 C1542.10764,716.75431 1578.94703,703.80708 1613.44463,686.758364 C1627.41945,679.30529 1643.51897,673.621747 1659.46577,678.083835 Z M1472.24172,787.869216 C1516.50156,815.116909 1525.56589,866.781716 1530.73178,914.512707 C1529.54024,919.026464 1532.45374,931.433776 1524.15142,929.253231 C1493.77875,923.664083 1464.14023,909.689775 1442.51768,887.35815 C1409.39583,853.323978 1430.38706,812.674238 1461.48618,786.432803 C1464.96374,782.370325 1468.80548,785.663707 1472.24172,787.869216 Z" id="Combined-Shape" fill="#EBBF5E" blush:i="0.0.0.2"/><path d="M162,660.062488 C211.726087,650.857882 259.355169,645.857826 307.886796,632.932516 C325.825706,628.444201 344.125442,626.099042 362.366795,623.370077 C372.931255,623.461459 385.631961,615.644903 395.148398,620.707484 C405.954047,633.810749 425.153456,643.274111 427.885017,661.172543 C429.93321,709.678285 404.533712,744.852788 358.435988,759.289273 C337.200829,768.825741 316.268114,758.087836 297.329993,748.371489 C248.007802,725.608631 200.933837,698.647957 162,660.062488" id="Fill-14" fill="#EBBF5E" blush:i="0.0.0.3"/><path d="M462.35915,205.353804 C474.209569,283.098673 479.40089,361.679765 492.228871,439.308598 C491.843974,451.834698 505.663879,502.293919 496.704973,506.570937 C476.781293,514.044211 457.852409,524.636063 436.964573,529.124055 C432.959539,530.063848 432.055701,529.47408 431.200694,525.140483 C421.942105,483.406954 416.52291,441.035708 411.85053,398.575278 C408.035072,343.509152 401.782891,288.705785 395.731776,233.871731 C397.516472,224.2868 415.29258,222.368855 422.774133,216.804896 C429.521318,215.737559 464.092143,192.547684 462.35915,205.353804 Z M377.361443,244.30417 C380.735482,273.216981 384.813916,302.056037 387.171448,331.078043 C391.686074,396.602892 398.12395,462.087511 411.731776,526.410254 C409.531731,535.764652 367.67361,510.983064 360.273632,507.897817 C341.531731,465.728312 342.633185,413.672801 335.529092,367.569391 C332.504389,335.737043 330.800666,303.733238 326.731776,272.007211 C327.404675,260.937297 363.102671,249.455506 372.854453,241.374096 C375.991784,239.632718 376.904254,240.471797 377.361443,244.30417 Z M555.463395,259.904423 C562.545843,327.051895 572.165374,393.849163 582.731776,460.525868 C566.544277,474.422111 545.190981,482.08643 526.698345,492.738972 C516.067036,500.040648 519.255092,482.775358 517.17522,476.583621 C502.960688,383.599452 494.552428,289.887124 481.056641,196.835019 C480.422848,192.463199 480.295898,192.314889 484.720997,190.582044 C503.787292,183.181814 522.919448,175.952859 541.918928,168.383268 C551.207244,157.531702 552.028121,250.997164 555.463395,259.904423 Z M307.908241,278.507991 C318.608743,349.94496 316.968771,423.074993 334.731776,493.507991 C317.397672,485.524078 301.527384,475.276686 285.572847,464.893389 C269.649903,440.182692 276.418495,404.91164 270.672372,376.15922 C267.676768,297.626503 246.491173,316.38037 307.908241,278.507991 Z M621.232022,145.357588 C625.862326,176.798446 628.421481,208.446868 631.002732,240.101029 C635.954851,298.896485 642.370993,357.604897 651.328998,415.936439 C652.096552,421.046176 652.188774,421.090176 647.690078,423.714871 C632.132449,432.792258 617.30587,441.301473 601.652176,450.507991 C585.087792,355.328376 572.860715,258.592501 565.731776,162.06993 C567.684765,153.875411 593.077468,151.078543 601.092121,146.405936 C606.727258,145.771762 619.924585,136.413157 621.232022,145.357588 Z M248.245088,334.973241 C251.249482,370.318831 255.61503,404.973663 256.731776,440.507991 C235.804385,420.02761 181.676992,384.28251 200.727361,351.749774 C203.271918,348.996319 207.817151,351.724865 209.695139,348.074668 C220.120676,337.718074 232.01653,329.100353 244.000295,320.667536 C249.688356,318.962195 246.727434,331.411186 248.245088,334.973241 Z M703.704607,127.42112 C708.692282,193.87935 706.669089,260.67412 709.273891,327.255684 C709.172492,327.257596 709.071093,327.260464 708.969694,327.262376 C705.833983,380.466438 724.269441,378.896551 673.005629,408.351531 C666.051199,410.143229 668.727745,396.044841 666.789688,391.703272 C660.163369,342.162917 654.313804,292.513569 650.283678,242.69117 C647.074309,208.844904 645.770473,174.777783 639.986912,141.235552 C639.351735,136.992459 639.662627,136.02586 643.731974,135.096548 C652.399662,135.307842 706.690134,115.27314 703.704607,127.42112 Z M723.731776,133.507991 C751.416292,159.068824 770.823238,190.439505 791.311149,221.609779 C801.143558,237.969211 786.655195,256.0249 786.629503,273.470742 C779.260668,310.150735 758.388329,345.237071 728.529512,367.507991 C726.825279,289.35457 729.013853,211.654699 723.731776,133.507991 Z" id="Combined-Shape" fill="#60D6E1" blush:i="0.0.0.4"/><path d="M240.330602,551.576389 C227.955762,550.4496 229.95928,567.124 239.857044,567.494878 C249.318635,568.058273 253.654478,550.272182 240.330602,551.576389 M189.719271,570.507991 C202.649544,570.373271 200.541687,553.653851 190.504273,552.510635 C177.734977,552.258273 177.485936,570.155064 189.719271,570.507991 M231.731776,597.114154 C231.597381,589.762986 221.45395,581.792408 214.705723,587.391145 C202.816131,599.560055 230.321113,617.832656 231.731776,597.114154 M215.787116,517.538654 C202.803863,516.579415 202.32144,538.443976 214.758535,538.507991 C227.02894,538.434127 231.168755,517.235322 215.787116,517.538654 M274.352651,597.501218 C288.134086,597.919256 290.052135,578.851091 276.492631,577.570674 C261.848971,576.227316 258.098812,596.915025 274.352651,597.501218 M181.727901,597.86513 C181.985497,587.358322 169.332681,583.441481 163.737403,592.784569 C157.410517,601.523895 167.1752,619.57012 177.406237,609.573749 C180.574947,606.353998 181.746096,602.300978 181.727901,597.86513 M309.677719,549.138299 C317.329418,554.315598 325.238059,559.665185 333.338448,565.146636 C325.467198,572.520365 328.78156,587.165799 340.882768,584.175304 C345.235445,584.038629 349.338849,577.040276 353.278309,580.406146 C363.183046,589.840593 372.727296,598.757213 381.731776,609.197475 C367.145516,611.467055 353.463346,613.59611 338.887631,615.862803 C346.049415,593.106363 316.304526,594.172815 322.011901,614.831963 C323.096235,617.399919 323.02433,618.498134 320.17208,619.133385 C302.731653,623.016119 285.314235,626.996066 267.8786,630.895162 C263.801082,631.807615 263.71096,631.726764 263.435802,627.354117 C263.656312,620.615639 255.050668,616.088991 250.294362,621.34329 C247.857246,624.024822 247.466081,627.085579 248.800646,630.538074 C255.065049,638.068692 221.174571,637.726041 215.39529,640.241059 C216.083665,633.482368 217.999226,626.025864 208.6496,627.529292 C198.970167,628.649645 197.268405,630.190611 195.339421,640.278597 C195.919459,646.244185 162.24278,648.09219 156.212309,648.507991 C163.226446,618.821535 147.675694,642.013988 141.181194,623.110444 C126.339908,588.197601 162.766252,558.996246 186.289881,538.680712 C196.441972,529.641853 203.230805,511.645949 219.09123,512.540114 C229.983468,515.461308 240.7434,518.884929 251.533053,522.183424 C256.878025,523.088176 256.602867,528.782339 259.481002,532.372472 C270.011796,542.783859 265.59009,523.930365 289.809763,538.452599 C292.461637,539.674014 293.718544,540.451716 291.31786,543.471085 C281.224252,559.984736 304.366303,566.184213 309.677719,549.138299" id="Fill-24" fill="#52DC82" blush:i="0.0.0.5"/><path d="M1719.70292,367.177122 C1714.45359,383.274792 1713.56129,401.208625 1704.21276,415.697009 C1692.07998,444.008528 1679.9932,433.82984 1666.7036,450.32839 C1664.99663,455.285069 1659.02752,456.688628 1656.55094,461.378054 C1644.72006,471.948008 1623.61445,467.706567 1608.65813,469.109165 C1549.92068,473.630356 1524.436,470.811702 1526.89342,404.190708 C1522.44917,389.615803 1638.6992,379.46211 1655.95958,373.510442 C1664.86245,373.779618 1721.18849,358.50005 1719.70292,367.177122 Z M1727.73178,328.507991 C1724.10828,337.698801 1728.10649,352.896281 1718.37164,356.604042 C1687.74491,361.29636 1657.13255,366.086073 1626.56811,371.160257 C1594.63133,376.644272 1562.60733,381.843815 1531.18901,389.90928 C1520.67695,394.3692 1525.78108,372.64529 1523.96694,366.644407 C1520.45844,356.521111 1557.25211,355.404444 1564.75594,352.525987 C1619.19271,344.963891 1673.14168,334.635198 1727.73178,328.507991 Z" id="Combined-Shape" fill="#60D6E1" blush:i="0.0.0.6"/><path d="M1713.73248,272.835652 C1720.85621,296.418538 1734.91349,288.330399 1734.73178,296.915767 C1731.55805,304.293578 1734.70897,318.725713 1725.81817,321.328969 C1694.76199,326.621871 1663.59877,331.195807 1632.41931,335.687191 C1598.76938,340.270726 1565.28861,345.83912 1532.00471,352.611233 C1524.37733,355.600369 1524.46621,350.67127 1524.88384,344.404066 C1539.20012,230.316769 1546.81221,319.783526 1596.84461,313.371377 C1619.97715,313.457768 1623.73875,245.08775 1642.43783,289.242306 C1651.19293,308.222459 1684.11653,306.555109 1685.9419,283.800619 C1684.84955,267.336371 1705.78781,253.712474 1713.73248,272.835652 Z M1716.56156,217.944353 C1721.67989,236.035834 1742.93459,225.062801 1741.67832,235.248204 C1738.19694,256.453705 1741.85154,314.808456 1718.09002,265.500886 C1704.42146,244.467319 1680.67897,260.037422 1679.18383,278.652389 C1680.31637,296.692962 1656.8575,300.524495 1649.239,285.72185 C1644.59462,269.035617 1624.93501,255.882193 1616.99959,278.037653 C1608.73773,292.822048 1605.32012,311.608949 1583.04423,305.227223 C1565.99707,302.093992 1560.72076,277.595812 1541.66928,279.55048 C1538.6276,279.799256 1537.67969,278.402653 1537.60545,275.634421 C1537.3266,265.155098 1536.747,254.677695 1536.73178,244.198372 C1537.18575,233.805496 1551.62329,224.117644 1560.00602,231.888288 C1575.57325,244.537437 1601.32291,277.396984 1610.09012,239.96534 C1611.41586,230.93833 1613.10136,221.375347 1618.66414,213.998518 C1630.20276,199.107505 1646.83497,210.237103 1649.90045,226.545851 C1653.58549,241.043048 1670.99906,252.161121 1680.39536,235.872545 C1684.20413,228.598492 1684.82846,219.547468 1688.02718,211.978534 C1695.47341,197.924139 1714.66193,202.355039 1716.56156,217.944353 Z M1665.0233,141.25688 C1696.48645,153.405286 1743.84297,180.306013 1742.71188,219.10857 C1742.98869,224.832578 1736.69663,222.510738 1733.14685,222.7458 C1724.39314,222.448374 1722.83826,213.49106 1719.87454,206.927543 C1710.83543,186.593211 1679.5565,196.799714 1677.86131,217.470809 C1672.92273,250.121449 1657.94569,234.63228 1651.89798,212.809859 C1644.27726,197.340837 1626.04728,195.515027 1614.31076,206.980313 C1600.14695,214.262448 1608.17429,258.956915 1588.20617,247.699827 C1573.36084,235.949588 1559.0634,211.56163 1538.33836,226.299559 C1532.56555,186.62871 1540.59671,132.641125 1591.53928,136.035618 C1595.12629,135.986686 1598.30477,135.12607 1600.95064,132.383037 C1620.79372,120.281643 1644.00236,140.302239 1665.0233,141.25688 Z" id="Combined-Shape" fill="#7DB4DB" blush:i="0.0.0.7"/><path d="M935.132343,148.350513 C932.143109,109.590142 980.530558,117.614063 1005.53714,121.237395 C1019.82635,120.8565 1027.80527,132.91945 1030.51894,145.681351 C1032.00927,154.5531 1030.14326,161.024441 1023.42583,164.328749 C1012.98973,171.770694 1003.37746,180.923764 991.008609,185.249914 C940.870528,207.206455 935.631025,204.350713 935.544256,148.394016 C935.406952,148.379515 935.269647,148.365014 935.132343,148.350513" id="Fill-58" fill="#52DC82" blush:i="0.0.0.8"/><path d="M265.974544,831.047916 C267.062067,859.926874 233.073088,873.013115 208.339669,870.749901 C193.331071,872.768987 180.459785,854.669017 178.704654,841.488954 C173.259296,815.592192 200.232588,770.075163 229.974033,789.835206 C252.965867,801.027777 264.734148,800.724292 265.974544,831.047916" id="Fill-61" fill="#7DB4DB" blush:i="0.0.0.9"/></g></g><g transform="translate(706.000000, 242.000000) scale(1 1)" blush:width="755" blush:height="859" id="Master/Character/Standing" blush:component="Master/Character/Standing" blush:i="0.1"><g id="Master/Character/Standing" stroke="none" stroke-width="1" fill="none" fill-rule="evenodd" blush:has-customizable-skin="true" blush:i="0.1.0"><g id="Legs" transform="translate(-0.000000, 263.000000) scale(1 1)" blush:width="693" blush:height="596" blush:component="Legs" blush:i="0.1.0.0"><g id="Legs/Jeans Sprint" stroke="none" stroke-width="1" fill="none" fill-rule="evenodd" blush:i="0.1.0.0.0"><g id="Group-20" transform="translate(85.000000, 0.000000)" blush:i="0.1.0.0.0.0"><path d="M549.434196,568.75038 L485.758787,588.704907 C482.333484,589.777032 478.712992,587.836063 477.672989,584.36894 C474.52195,573.957255 471.477014,563.524932 468.243896,553.128724 L458.493492,521.952485 C451.797034,501.212696 445.126601,480.461557 438.097823,459.802255 C422.599876,413.775175 406.298155,367.956535 389.348809,322.352527 C385.583177,312.316446 389.97241,301.198953 399.152263,297.518232 L440.03369,281.169099 C449.213543,277.489409 459.761715,282.785026 463.59241,292.996526 C480.820024,339.350713 497.411024,385.978348 513.221272,432.933089 C520.387183,453.999984 527.208761,475.210311 534.052361,496.410319 L544.032987,528.325386 C547.34418,538.970277 550.4752,549.686367 553.704314,560.364278 C554.771343,563.923238 552.859499,567.678255 549.434196,568.75038" id="SKIN-DARKER" fill="#964c1c" blush:skin="600" blush:i="0.1.0.0.0.0.0"/><path d="M253.688249,6.17159823 C250.953025,7.46171177 250.176827,11.7751425 251.955573,15.8031407 C268.136561,52.4363886 283.832799,89.3313688 299.211548,126.359276 C306.944489,144.854682 314.44407,163.451071 322.003744,182.020668 C329.417192,200.650031 336.912767,219.24642 344.141931,237.942762 C351.493283,256.595825 358.562199,275.346781 365.727263,294.065792 C372.708043,312.843539 379.807006,331.58419 386.58347,350.425824 C393.500151,369.223149 400.116368,388.109092 406.806699,406.971335 L416.587804,435.332194 C418.2043,440.061923 419.862861,444.781348 421.447308,449.519321 L426.18863,463.73427 L432.780809,483.509485 L439.1857,503.322826 L445.57056,523.141319 L451.735079,543 L554,509.11185 L547.521996,488.655513 L540.835671,468.290885 L534.129315,447.936562 L527.243682,427.661583 L522.297043,413.085979 C520.64349,408.228475 518.92083,403.402914 517.236228,398.559836 L507.055507,369.536404 C500.106776,350.259923 493.22515,330.95459 486.05708,311.778062 C479.023218,292.541768 471.677876,273.446645 464.441701,254.303092 C457.032259,235.236821 449.710954,216.132424 442.116226,197.15065 C434.640682,178.117353 426.903734,159.200497 419.244907,140.248605 C411.441857,121.361632 381.413096,45.9889123 365.727263,0 C365.727263,0 328.380925,2.05719941 253.688249,6.17159823 Z" id="Fill-3" fill="#3E36B9" blush:i="0.1.0.0.0.0.1"/><path d="M545.940827,536 C540.694163,537.694646 521.776106,543.807916 504.134887,549.507808 C504.226089,549.736092 504.32531,549.960262 504.39747,550.199857 C506.269632,556.413901 500.930763,563.631571 492.470956,566.320587 C484.012151,569.01166 475.654571,566.214672 473.804458,560.075694 C473.7333,559.840212 473.692208,559.599589 473.642097,559.361022 C471.332963,560.105515 470,560.537402 470,560.537402 L480.388094,595 L591,560.68445 L587.523271,549.147902 C584.737077,539.903444 553.902527,547.173557 545.940827,536" id="Fill-5" fill="#D7DBE2" blush:i="0.1.0.0.0.0.2"/><path d="M554,509.873671 L451.409887,544 L446.28013,527.561748 C444.580905,522.078879 442.755365,516.622933 441,511.150419 L543.266308,476 C545.074805,481.637155 546.948465,487.244282 548.70383,492.905254 L554,509.873671 Z" id="Fill-8" fill="#D7DBE2" blush:i="0.1.0.0.0.0.3"/><path d="M32.4518534,226.986362 L75.5578755,174.619526 C77.8769843,171.80376 81.602159,171.148955 84.0062718,173.188885 C91.2696125,179.346951 98.9659736,185.391228 106.732338,191.075517 C114.514703,196.766013 122.431074,202.125485 130.378447,207.038076 C138.32482,211.911358 146.313195,216.397757 154.174563,220.152801 C162.029932,223.945086 169.770295,227.040153 176.994634,229.223872 C180.058778,230.175563 182.976915,230.860367 185.792047,231.475864 C188.588178,232.045844 191.2013,232.398591 193.641415,232.648927 C196.045528,232.844438 198.210629,232.854782 200.14172,232.778233 C202.051809,232.674788 203.634884,232.388246 205.017948,232.094463 C206.419014,231.823438 207.449063,231.345523 208.45911,230.9214 C209.468157,230.507621 210.318197,229.942813 211.251241,229.253871 C213.095327,227.969087 215.214427,225.668475 217.607539,222.191697 C218.113563,221.368277 219.018605,220.827261 220.276664,220.576925 C221.546724,220.110389 223.146799,219.861087 224.965884,219.907637 C228.601055,219.994531 233.141268,221.065184 237.519473,223.384415 L276.4663,244.131294 C280.845506,246.450526 283.942651,250.19626 285.263713,254.620592 C285.921744,256.827068 286.162755,259.184574 285.888742,261.556562 C285.477723,263.962687 284.595681,266.389501 283.162614,268.613563 C276.451299,278.628049 268.045905,288.338408 257.538412,296.042973 C252.340168,299.901462 246.710904,303.31307 240.805627,305.978841 C234.922351,308.657026 228.816065,310.832469 222.701778,312.210353 C216.594492,313.622374 210.478205,314.499585 204.498924,314.831643 C198.530644,315.137839 192.674369,315.018878 186.981102,314.535791 C181.314837,314.006154 175.774577,313.192044 170.406325,312.096564 C165.062074,310.967981 159.811828,309.670784 154.74959,308.114975 C142.739027,304.475789 131.455498,299.855946 120.684992,294.671296 C109.893486,289.503196 99.6430053,283.724772 89.6925386,277.620498 C79.768073,271.487258 70.1846234,264.985756 60.8661863,258.173919 C51.5467491,251.349669 42.5063251,244.253359 33.6209082,236.723616 C30.651769,234.205771 30.1257443,229.800059 32.4518534,226.986362" id="SKIN" fill="#ae5d29" blush:skin="500" blush:i="0.1.0.0.0.0.4"/><path d="M159.127501,0 C157.624968,-0.0279988939 157.660229,10.7399664 157.865576,14.1521098 C158.217168,17.755193 158.633871,21.3593083 159.11368,24.9469099 C159.663607,28.3198333 160.310698,31.5224592 160.970811,34.8045573 C162.376181,40.9879063 163.983891,46.9318066 165.729835,52.1666499 L167.040044,56.1928966 L168.393326,59.9053831 C169.299854,62.3432182 170.217401,64.9472224 171.146969,67.1518015 L173.949694,73.9864096 L176.75843,80.3792761 L177.464621,81.9759446 L178.160794,83.4786914 L179.554144,86.4831529 L180.9515,89.4865823 L182.323813,92.3558379 L185.058424,98.0251979 L187.719911,103.441692 C191.209796,110.535359 194.607524,117.313201 197.63563,123.637948 C199.229317,126.89218 200.5836,129.888384 202.053078,133.000185 L204.050446,137.474366 L205.046124,139.703715 L205.946643,141.859785 C208.481917,147.68809 210.414175,153.066396 212.181154,158.257891 C212.933423,160.77623 213.805894,163.335854 214.341797,165.668414 L214.818601,167.452926 L215.057003,168.338473 L215.222282,169.181704 C215.445658,170.303604 215.68406,171.422407 215.934483,172.538114 C216.085738,173.110933 216.127809,173.620793 216.20594,174.147168 L216.442339,175.717001 L216.701776,177.281674 C216.818974,177.816305 216.788923,178.272496 216.847021,178.76894 C216.924151,179.745312 217.022317,180.715492 217.140516,181.686704 C217.176577,182.618696 217.153538,183.50734 217.199616,184.417658 L217.271737,185.775909 L217.18459,187.052625 C217.132502,187.901016 217.121484,188.752504 217.111467,189.600895 C216.976239,190.408003 216.87006,191.21511 216.791928,192.025313 C216.746852,192.430931 216.73383,192.841709 216.682744,193.243199 L216.411286,194.420832 C216.243003,195.208329 216.112783,196.000987 215.992581,196.798805 C215.734145,197.579077 215.500751,198.36451 215.295405,199.157168 L215.006919,200.354411 C214.887718,200.753836 214.691387,201.151197 214.547143,201.553719 C214.23662,202.355665 213.951139,203.164837 213.689698,203.986393 C213.594537,204.397172 213.344115,204.811046 213.151791,205.225953 L212.566804,206.47893 L212.012871,207.745325 C211.81654,208.170552 211.705352,208.596812 211.414862,209.030297 C210.911013,209.89417 210.425194,210.7663 209.956403,211.648751 L209.265238,212.979136 C209.209143,213.084411 209.150044,213.213424 209.097956,213.302185 L208.948704,213.516863 L208.659216,213.95138 C207.151674,216.370637 205.882535,217.755724 205.135275,218.450331 C205.048128,218.588634 204.946957,218.602051 204.86582,218.666042 C204.78268,218.72384 204.71156,218.796087 204.648454,218.881752 C204.571324,218.903426 204.505212,218.931293 204.448116,218.976706 C204.392021,219.021086 204.351954,219.105719 204.287846,219.092301 C204.178662,219.120168 204.117559,219.235764 204.009376,219.227507 C203.959292,219.231636 203.95228,219.316269 203.88717,219.303883 C203.829072,219.303883 203.780991,219.319365 203.73892,219.353424 C203.712876,219.408126 203.623726,219.387484 203.56062,219.406062 C203.4895,219.416383 203.450434,219.473149 203.370299,219.494823 C203.155937,219.475213 203.069792,219.632093 202.779302,219.627965 C202.656095,219.646543 202.542904,219.687827 202.420698,219.733239 C202.256421,219.739432 202.095149,219.756978 201.937884,219.79207 C201.85875,219.808583 201.780618,219.830257 201.702487,219.853996 L201.398975,219.87051 C201.196634,219.884959 200.996296,219.913858 200.794957,219.955142 C199.001933,220.098605 196.261313,220.075899 192.81951,219.626933 C189.333632,219.130489 185.18063,218.197465 180.671027,216.820635 C172.380048,214.308489 162.948145,210.258503 153.355972,205.210471 C143.739759,200.159343 133.896162,194.121521 124.165756,187.470628 L65,279.893685 C77.7064236,288.460167 90.9387339,296.530207 105.047522,303.833391 C119.167329,311.114901 134.142578,317.688386 150.71552,322.6394 C159.773793,325.318748 169.30887,327.511974 179.459985,328.82791 C189.642152,330.088112 200.466403,330.477216 211.803518,329.269651 C223.138629,327.971261 234.995621,325.115423 246.280648,319.955924 C257.533621,314.842869 268.146514,307.724432 276.845181,299.362306 C285.619976,291.039401 292.71594,281.763861 298.409539,272.423299 L299.486355,270.665622 L300.021257,269.785236 L300.485039,268.942005 L302.300099,265.57837 L305.878132,258.822202 C306.493169,257.719913 306.987001,256.487578 307.528915,255.310976 L309.111583,251.73576 L310.673216,248.151255 C311.183076,246.948851 311.731,245.779475 312.151709,244.509984 L314.794165,237.002442 C315.216877,235.743273 315.674649,234.503713 316.057294,233.224933 L317.113074,229.340085 C317.807245,226.746402 318.483385,224.147558 319.141494,221.547682 C319.664376,218.902394 320.1532,216.247816 320.631006,213.593239 L321.332188,209.607244 C321.513494,208.272731 321.645717,206.933057 321.796972,205.596479 C322.088463,202.919195 322.362926,200.238815 322.616353,197.559467 C322.743568,194.892505 322.825706,192.22451 322.905841,189.555483 L323,185.555039 L322.873787,181.608264 C322.771615,178.982586 322.696488,176.338329 322.526201,173.732261 L321.749892,166.021394 C321.520506,163.424615 321.099796,160.945496 320.69311,158.452959 L320.078073,154.713638 C319.866717,153.470982 319.676396,152.206651 319.396925,151.017665 L317.814257,143.789824 L317.408573,141.98467 L316.948797,140.236282 L316.010215,136.751891 C314.805183,132.040326 313.340714,127.6322 311.914309,123.159051 C308.923266,114.43156 305.688813,105.947646 302.210949,98.0592574 L300.921775,95.0589243 L299.603553,92.1514808 L296.960096,86.3520754 C295.179093,82.6292679 293.393081,78.7898324 291.608072,75.2073914 C284.470037,60.6237291 277.361051,47.1568058 271.740574,34.8551305 L269.704141,30.316959 L267.893087,25.9728235 C267.240988,24.4938152 266.813267,23.1861365 266.279366,21.8082745 L265.502056,19.7678003 L264.887019,17.8666605 C263.182144,12.7876653 257.955332,0.0339274854 256.451797,0 L159.127501,0 Z" id="Fill-12" fill="#694FD9" blush:i="0.1.0.0.0.0.5"/><path d="M54.0536333,253.355094 C57.2962112,248.804809 68.9922957,232.40159 79.8972391,217.105891 C79.6982036,216.982605 79.4941673,216.866511 79.3031332,216.722677 C74.3212454,212.965532 74.7813274,204.000576 80.2192965,196.848953 C85.6612664,189.689112 93.6876968,186.787778 98.2545107,190.229516 C98.4305421,190.363076 98.5855697,190.518211 98.7485988,190.666154 C100.174853,188.663782 101,187.507975 101,187.507975 C96.7382405,184.297398 92.5134876,181.002577 88.4007546,177.64303 C86.3443881,175.966339 84.3080252,174.274236 82.3326731,172.591381 L79.4391575,170.090727 L77.0857381,168 L-2.91038305e-11,256.105402 L3.15156166,258.942011 L5.82503813,261.285475 L11.0239647,265.724802 C15.1627023,269.193252 22.6580381,264.96762 30.7054723,260.446101 C38.7739102,255.92561 47.363441,251.099986 54.0536333,253.355094" id="Fill-14" fill="#D7DBE2" blush:i="0.1.0.0.0.0.6"/><path d="M65,279.82601 L123.987578,187 C131.982753,192.478487 140.046663,197.512157 148,201.938601 L97.474796,300 C86.1653985,293.706361 75.393927,286.944112 65,279.82601" id="Fill-16" fill="#D7DBE2" blush:i="0.1.0.0.0.0.7"/><path d="M257,102 C202.324,102 158,56.3328485 158,0 L366,0 C366,56.3328485 321.676,102 267,102 L257,102 Z" id="Fill-18" fill="#694FD9" blush:i="0.1.0.0.0.0.8"/></g></g></g><g id="Body" transform="translate(-33.000000, -31.000000) scale(1 1)" blush:width="863" blush:height="528" blush:component="Body" blush:i="0.1.0.1"><g id="Body/Bomber Jacket Open Arms" stroke="none" stroke-width="1" fill="none" fill-rule="evenodd" blush:i="0.1.0.1.0"><g id="Group" transform="translate(608.066024, 229.666178) rotate(-11.000000) translate(-608.066024, -229.666178) translate(420.066024, 115.166178)" blush:i="0.1.0.1.0.0"><path d="M335.476139,131.1262 C350.494139,129.9812 358.966139,136.5402 363.328139,142.1492 C365.509139,144.9402 364.830139,148.4802 362.633139,150.9912 C360.440139,153.4992 356.740139,154.9402 353.034139,153.5142 C349.322139,152.0702 345.758139,149.1922 340.798139,147.0872 C335.843139,144.9902 329.559139,143.7582 320.362139,145.3782 C315.772139,146.2092 313.486139,145.7002 312.902139,144.5872 C312.310139,143.4552 313.414139,141.7122 315.510139,139.8012 C319.736139,136.0212 327.953139,131.6752 335.476139,131.1262" id="SKIN-DARKER" fill="#964c1c" blush:skin="600" blush:i="0.1.0.1.0.0.0"/><path d="M309.483939,150.4426 C305.727939,142.1326 299.014939,136.0976 291.454939,132.8686 C283.852939,129.5806 275.413939,129.1316 267.532939,131.9916 L264.612939,133.0796 L261.684939,134.0926 C259.733939,134.7616 257.784939,135.4656 255.832939,136.1096 C251.923939,137.3436 248.019939,138.6576 244.114939,139.7356 C234.567939,142.4936 225.016939,144.8416 215.617939,146.4276 C206.224939,148.0106 196.973939,148.9346 188.127939,149.0036 C179.284939,149.0756 170.859939,148.2736 163.245939,146.4806 C161.400939,145.9426 159.541939,145.4486 157.685939,144.9596 L155.022939,144.0486 L152.386939,143.0256 C148.889939,141.5886 145.456939,139.8596 142.087939,137.8406 C128.604939,129.8056 116.225939,116.9356 105.727939,101.5326 C95.2009387,86.1166 86.4589387,68.3216 79.3089387,49.6706 C76.0109387,41.0736 69.9039387,34.3116 62.3619387,30.0626 C54.8329387,25.8476 45.8419387,24.1386 37.0449387,26.5326 C28.2569387,28.9216 21.3759387,35.1756 17.7279387,43.6956 C14.0729387,52.1776 13.6959387,62.9036 17.6749387,73.2776 C26.2999387,95.6956 36.9409387,117.7746 51.2329387,138.7646 C58.3949387,149.2366 66.5059387,159.4166 75.9079387,168.9116 C85.2989387,178.3896 96.0309387,187.1906 108.193939,194.4726 C114.266939,198.1116 120.685939,201.3586 127.372939,204.1006 L132.432939,206.0626 L137.581939,207.8226 C141.024939,208.8196 144.479939,209.7576 147.940939,210.6806 C161.768939,213.9446 175.424939,215.0936 188.576939,215.0026 C201.743939,214.8976 214.456939,213.5566 226.766939,211.4796 C239.078939,209.3906 250.939939,206.4636 262.535939,203.1126 C267.302939,201.7836 271.936939,200.2416 276.607939,198.7556 C278.928939,197.9896 281.213939,197.1696 283.518939,196.3776 L286.967939,195.1776 L290.375939,193.9126 C299.626939,190.5476 306.397939,183.6866 309.806939,175.7766 C313.204939,167.7966 313.233939,158.7396 309.483939,150.4426" id="Fill-3" fill="#964c1c" blush:skin="600" blush:i="0.1.0.1.0.0.1"/><path d="M287.348239,195.0383 C281.686239,197.0223 276.744239,185.1023 273.013239,170.8563 C271.138239,163.7353 269.531239,156.0413 268.278239,149.2063 C267.029239,142.3713 266.137239,136.3993 265.802239,132.6373 L271.229239,130.6143 C279.296239,127.5083 286.764239,124.9423 293.666239,122.7203 C300.581239,120.5523 306.941239,118.7963 312.820239,117.4793 C324.562239,114.8073 334.351239,113.7913 342.403239,113.7543 C358.484239,113.6453 367.654239,117.5243 370.425239,118.1843 C373.160239,118.8273 375.230239,121.3503 375.708239,124.1633 C376.230239,126.9423 375.282239,129.8933 372.372239,131.0713 C369.607239,132.2123 356.199239,134.0773 343.556239,137.6383 C330.900239,141.2833 318.891239,146.7173 318.218239,157.4323 C317.823239,163.9133 320.298239,167.4303 324.012239,169.3073 C327.730239,171.2083 332.610239,171.3923 336.846239,171.3953 C341.885239,171.3753 345.023239,174.9313 345.800239,178.8353 C346.583239,182.7353 344.945239,186.9773 340.532239,188.0943 C336.845239,189.0653 332.437239,189.6683 327.789239,190.1903 C323.091239,190.6433 318.168239,191.0303 313.245239,191.3293 C303.466239,192.0403 293.909239,192.6193 287.348239,195.0383" id="SKIN-DARKER" fill="#964c1c" blush:skin="600" blush:i="0.1.0.1.0.0.2"/><path d="M269.716839,124.7722 C261.106839,128.0832 252.465839,130.9872 243.858839,133.5612 C243.208839,133.2612 242.538839,132.9832 241.609839,132.8002 C240.690839,132.6122 239.659839,132.4762 238.524839,132.3872 C236.253839,132.2102 233.580839,132.0742 230.542839,132.1782 C229.039839,132.2192 227.439839,132.2632 225.747839,132.3092 C224.069839,132.3642 222.309839,132.4602 220.475839,132.5882 C216.860839,132.6452 212.889839,133.0222 208.823839,133.0802 C200.642839,133.3932 191.687839,133.5122 183.133839,132.7282 C178.889839,132.2982 174.673839,131.7742 170.825839,130.8922 C169.868839,130.6662 168.902839,130.4582 167.927839,130.2662 C167.417839,130.1962 167.014839,130.0042 166.561839,129.8732 L165.225839,129.4602 C164.345839,129.1782 163.393839,128.9882 162.543839,128.6842 C161.704839,128.3572 160.840839,128.1142 159.999839,127.7382 C156.604839,126.3912 153.155839,124.7452 149.648839,122.5822 C146.139839,120.4492 142.551839,117.9092 138.971839,114.8802 C135.383839,111.8842 131.793839,108.4602 128.295839,104.6772 C124.788839,100.9172 121.362839,96.8292 118.087839,92.5242 C111.507839,83.9482 105.521839,74.5812 100.210839,65.4812 C94.8988387,56.3652 89.5932594,46.4320397 84.9158387,38.6076823 C80.2384181,30.7833248 73.8929146,19.604165 60.1410854,10.1052942 C46.3892562,0.606423435 36.2389387,4.26325641e-14 36.2389387,4.26325641e-14 C24.2979387,2.25 9.76983872,17.6282 4.48183872,29.0232 C-0.824161279,40.3852 -1.72016128,55.0342 3.42383872,69.3532 C7.04683872,83.7192 12.0808387,98.6722 18.8128387,113.7752 C25.5778387,128.8632 34.0658387,144.1282 44.8898387,158.7722 C55.7058387,173.3782 68.9568387,187.4292 84.9158387,199.0872 C92.8928387,204.8892 101.449839,210.1172 110.502839,214.3642 C112.776839,215.4092 115.019839,216.4682 117.343839,217.3882 C118.497839,217.8552 119.647839,218.3212 120.796839,218.7862 C121.964839,219.2112 123.131839,219.6362 124.294839,220.0582 C128.946839,221.7432 133.694839,223.1292 138.297839,224.1882 C140.609839,224.7472 142.910839,225.2842 145.194839,225.7972 C147.448839,226.1862 149.682839,226.5352 151.903839,226.8772 C154.115839,227.1922 156.346839,227.5872 158.493839,227.7862 C160.633839,227.9562 162.757839,228.1262 164.862839,228.2922 C165.914839,228.3662 166.962839,228.4402 168.005839,228.5132 C169.051839,228.5932 170.084839,228.6502 171.084839,228.6442 C173.098839,228.6572 175.094839,228.6712 177.073839,228.6842 C178.060839,228.6842 179.043839,228.6812 180.020839,228.6812 C181.001839,228.6842 181.971839,228.6752 182.905839,228.6062 C184.787839,228.4942 186.650839,228.3832 188.495839,228.2722 C190.331839,228.1452 192.164839,228.0482 193.936839,227.8782 C195.683839,227.6672 197.411839,227.4572 199.118839,227.2502 C200.819839,227.0292 202.499839,226.8112 204.157839,226.5972 C205.816839,226.3802 207.378839,226.0462 208.955839,225.7742 C210.518839,225.4812 212.061839,225.1922 213.583839,224.9082 C215.101839,224.6192 216.601839,224.3402 218.020839,223.9782 C220.886839,223.2952 223.651839,222.6132 226.308839,221.9362 C236.803839,219.0302 245.385839,215.9192 251.891839,212.9792 C255.134839,211.4932 257.954839,210.1862 260.174839,208.8702 C261.290839,208.2232 262.283839,207.6102 263.146839,207.0342 C264.011839,206.4572 264.590839,205.9632 265.142839,205.4772 C275.825839,202.2892 286.285839,198.7502 296.488839,194.8322 L269.716839,124.7722 Z" id="Fill-7" fill="#CC2935" blush:i="0.1.0.1.0.0.3"/><path d="M244.142139,133.4807 L265.922139,206.8147 C276.521139,203.6367 286.902139,200.1217 297.025139,196.2347 L269.717139,124.7747 C261.201139,128.0467 252.656139,130.9227 244.142139,133.4807" id="Fill-10" fill="#B52935" blush:i="0.1.0.1.0.0.4"/></g><g id="Group-37" transform="translate(94.000000, 107.000000)" blush:i="0.1.0.1.0.1"><path d="M17.4421,346.2537 C17.7861,350.0787 18.5701,353.3537 19.6541,356.1547 C20.7441,358.9587 22.0951,361.2787 23.7281,363.2477 C26.9301,367.1637 30.6941,369.5097 33.9291,370.9447 C37.1671,372.3747 40.3841,371.0367 42.2211,368.5857 C43.1101,367.3477 43.7981,365.8687 43.9221,364.2797 C44.0571,362.6927 43.6801,361.0097 42.6191,359.4167 C40.4941,356.2287 36.9631,353.3277 34.0571,348.8947 C32.6041,346.6757 31.3091,344.0707 30.4271,340.8427 C30.0071,339.2357 29.6051,337.4427 29.4941,335.5197 C29.3641,333.5887 29.3801,331.4767 29.5721,329.1547 C30.3451,319.8617 27.0321,320.1717 23.5691,324.8467 C21.8641,327.1867 20.0261,330.5737 18.8501,334.3907 C17.7291,338.2267 17.0971,342.4297 17.4421,346.2537" id="SKIN-DARKER" fill="#964c1c" blush:skin="600" blush:i="0.1.0.1.0.1.0"/><path d="M33.736,317.9002 L33.736,317.9002 C29.48,316.2732 25.748,313.8552 22.659,310.8282 C21.114,309.3152 19.73,307.6502 18.522,305.8612 C17.319,304.0742 16.367,302.1932 15.57,300.2032 C13.996,296.2302 13.196,291.8792 13.259,287.4022 C13.292,285.1662 13.539,282.8982 14.011,280.6342 C14.507,278.3822 15.125,276.0872 16.181,273.9302 L22.21,261.0382 C24.252,256.7572 26.147,252.4002 28.398,248.2282 C45.095,214.9722 64.62,183.2602 86.304,153.3192 C107.996,123.3752 131.8,95.1572 157.15,68.6722 C163.07,62.6332 171.079,59.7502 179.128,60.0742 C187.224,60.4342 195.423,64.0592 201.778,70.5652 C208.158,77.0962 211.531,85.2362 212.067,93.1352 C212.636,101.0832 210.311,108.7282 204.818,114.3202 C157.873,163.3852 117.402,218.0122 87.403,277.8002 C85.365,281.5462 83.685,285.4602 81.852,289.3002 L76.436,300.8632 C75.48,302.7962 74.541,304.6752 73.33,306.3662 C72.143,308.0662 70.791,309.6222 69.298,311.0262 C66.312,313.8342 62.766,316.0422 58.884,317.5772 C56.954,318.3472 54.9,318.9352 52.862,319.3692 C50.831,319.8042 48.738,320.0562 46.614,320.1092 C42.366,320.2142 37.992,319.5272 33.736,317.9002" id="Fill-14" fill="#ae5d29" blush:skin="500" blush:i="0.1.0.1.0.1.1"/><path d="M77.6413,298.2938 C79.8353,293.6108 68.5063,287.4548 54.7263,282.2578 C40.9503,277.0508 24.6383,272.9788 17.0733,272.0208 C16.1383,274.0158 15.1893,276.0058 14.3683,278.0548 C12.4603,282.5978 10.7493,286.9758 9.2183,291.1868 C8.4533,293.2918 7.7343,295.3558 7.0573,297.3768 C6.7263,298.3898 6.3993,299.3908 6.0753,300.3788 C5.8033,301.3848 5.5363,302.3808 5.2703,303.3628 C3.2033,311.2378 1.7703,318.4278 0.8423,324.9568 C0.5843,326.5798 0.4703,328.2008 0.3563,329.7718 C0.2443,331.3418 0.1603,332.8708 0.1023,334.3608 C-0.0147,337.3398 -0.0277,340.1548 0.0453,342.8148 C0.1193,345.4748 0.2793,347.9788 0.5093,350.3328 C0.7473,352.6898 1.0073,354.8828 1.4733,356.9788 C4.9233,373.6558 11.4193,381.1748 12.8223,383.6128 C15.6433,388.4398 25.1673,387.7338 25.7493,381.8498 C25.8893,380.4518 25.4873,376.5258 25.1473,371.2928 C24.9773,368.6768 24.8233,365.7338 24.7573,362.6248 C24.7593,359.5358 24.9573,356.3128 25.2623,353.0748 C25.5803,349.8418 26.0613,346.6128 26.7663,343.5628 C27.1193,342.0378 27.5273,340.5588 27.9983,339.1468 C28.4743,337.7338 28.9873,336.3828 29.6753,335.1558 C32.3293,330.2168 36.0783,326.7248 41.3703,326.0838 C47.7573,325.3128 51.4263,327.5858 53.6593,330.9398 C55.8883,334.3028 56.6733,338.7678 57.2123,342.5848 C57.8243,347.1388 61.9263,349.6498 65.8183,350.0368 C69.6963,350.4118 73.6223,348.7988 74.0873,344.9668 C74.4953,341.7358 74.5603,337.9278 74.5023,333.8268 C74.4533,331.7698 74.4023,329.6458 74.3503,327.4958 C74.3733,325.3608 74.3963,323.2008 74.4193,321.0548 C74.4973,316.7458 74.6633,312.4608 75.1093,308.5348 C75.3313,306.5738 75.6223,304.7028 76.0063,302.9678 C76.4323,301.2498 76.9953,299.6878 77.6413,298.2938" id="SKIN" fill="#ae5d29" blush:skin="500" blush:i="0.1.0.1.0.1.2"/><path d="M8.5706,276.3594 C9.1026,275.1234 9.5896,273.8654 10.1576,272.6464 L11.8636,268.9914 L15.2806,261.6814 L18.7036,254.3734 C19.8576,251.9454 20.9446,249.4804 22.2186,247.1154 C22.1106,246.5094 22.0546,245.8294 22.0596,245.0524 C21.8656,241.6664 22.7636,236.7144 24.5746,230.5134 C25.0266,228.9634 25.5366,227.3354 26.1016,225.6354 C26.3896,224.7874 26.6856,223.9184 26.9866,223.0314 C27.3306,222.1654 27.6816,221.2794 28.0396,220.3754 C29.4986,216.7684 31.1726,212.8984 33.0356,208.8084 C40.3726,192.3734 51.7966,173.0984 65.1306,153.5904 C72.0396,144.0374 79.1026,134.1444 86.8396,124.9254 C88.7496,122.6014 90.6586,120.2784 92.5626,117.9624 C93.5196,116.8104 94.4756,115.6604 95.4296,114.5124 C96.4186,113.3994 97.4056,112.2884 98.3916,111.1794 C102.3406,106.7554 106.2796,102.4084 110.1756,98.1734 C112.0996,96.0334 114.1106,94.0214 116.0876,92.0234 C118.0716,90.0344 120.0326,88.0684 121.9676,86.1294 C125.8686,82.2924 141.8966,63.7285072 168.2056,48.0644 C185.744933,37.6216618 205.4766,37.6216618 227.4006,48.0644 C234.673275,68.601 234.002942,87.763 225.3896,105.5504 C223.8176,110.3334 221.2596,114.7014 217.6476,118.3804 C216.1746,120.3534 214.6866,122.3474 213.1836,124.3614 C211.7146,126.3994 210.2156,128.4394 208.6886,130.4814 C205.6496,134.5764 202.4316,138.6244 199.2446,142.7544 C193.0056,151.1114 186.2466,159.3194 179.8236,167.7354 C173.1476,175.9804 166.8376,184.4354 160.3176,192.4894 C157.1626,196.5784 154.0396,200.6244 150.9666,204.6084 C149.4036,206.5824 147.8546,208.5414 146.3186,210.4824 C144.7816,212.4204 143.3696,214.4064 141.8966,216.3234 C138.9796,220.1754 136.0826,223.9164 133.2276,227.5264 C131.7626,229.3104 130.4906,231.1644 129.1416,232.9324 C127.8006,234.7064 126.4816,236.4494 125.1886,238.1604 C122.5996,241.5804 119.9806,244.8034 117.5886,247.9324 C115.2486,251.0884 112.9766,254.0674 110.7916,256.8464 C108.6056,259.6254 106.5076,262.2054 104.5176,264.5624 C102.6026,266.9574 100.8486,269.1564 99.1776,271.0874 C95.8506,274.9574 92.9906,277.8224 90.7556,279.4804 C90.2456,279.9194 89.7866,280.2594 89.3586,280.5394 C88.2206,282.6324 87.2726,284.8144 86.2536,286.9624 L83.2316,293.4254 L80.2056,299.8864 L78.6896,303.1154 C78.1856,304.1914 77.7626,305.3024 77.2936,306.3944 L8.5706,276.3594 Z" id="Fill-19" fill="#FA3239" blush:i="0.1.0.1.0.1.3"/><path d="M22.0583,247.4295 L90.5603,281.4845 C89.4343,283.5485 88.5233,285.7125 87.5073,287.8265 L84.5273,294.2015 L81.5403,300.5755 L80.0463,303.7605 C79.5503,304.8245 79.1313,305.9175 78.6693,306.9955 L8.5723,276.3595 C9.0973,275.1365 9.5803,273.8945 10.1413,272.6875 L11.8293,269.0725 L15.2083,261.8415 L18.5933,254.6145 C19.7453,252.2175 20.7963,249.7675 22.0583,247.4295" id="Fill-21" fill="#CC2935" blush:i="0.1.0.1.0.1.4"/><path d="M394.821,190.869 L180.34,190.869 L180.34,83.807 C180.34,60.339 199.365,41.313 222.834,41.313 L352.327,41.313 C375.796,41.313 394.821,60.339 394.821,83.807 L394.821,190.869 Z" id="Fill-23" fill="#D7DBE2" blush:i="0.1.0.1.0.1.5"/><path d="M326.3395,41.3133 C326.3395,57.8693 318.3395,78.8693 291.8395,78.8693 C260.3395,78.8693 247.3395,60.9503 247.3395,41.3133 L326.3395,41.3133 Z" id="SKIN" fill="#ae5d29" blush:skin="500" blush:i="0.1.0.1.0.1.6"/><path d="M333.4743,253.2791 C359.3393,253.8691 381.3393,251.8691 404.7853,244.0251 C406.9493,243.3001 408.7893,241.9221 408.5903,239.6471 L405.4343,203.5601 C381.3533,204.6071 356.2053,209.2841 329.7363,213.4331 C329.2383,226.3531 328.7303,238.2791 328.2633,248.6261 C328.1353,251.4761 330.6213,253.2141 333.4743,253.2791" id="Fill-27" fill="#CC2935" blush:i="0.1.0.1.0.1.7"/><path d="M167.8913,204.7118 L165.0293,237.4348 C164.6923,241.2808 167.0223,244.8868 170.6903,246.0918 C195.2773,254.1698 230.4913,258.3158 253.6073,259.9358 C257.2683,260.1918 260.4893,257.5898 261.0413,253.9608 C262.6083,243.6738 263.7383,232.2488 264.5133,220.0978 C239.8063,219.1358 194.9823,214.8268 167.8913,204.7118" id="Fill-29" fill="#CC2935" blush:i="0.1.0.1.0.1.8"/><path d="M208.7028,43.1161 C191.2108,48.3791 178.4668,64.6011 178.4668,83.8071 L167.8908,204.7121 C194.9818,214.8271 239.8068,219.1361 264.5138,220.0971 C267.5658,172.1921 271.3398,75.8691 242.3398,60.8691 C242.3398,60.8691 221.3398,38.8691 208.7028,43.1161" id="Fill-31" fill="#FA3239" blush:i="0.1.0.1.0.1.9"/><path d="M329.736,213.4334 C357.34,214.8694 380.34,212.8694 405.434,203.5604 L394.96,83.8074 C394.96,62.4134 379.146,44.7184 358.571,41.7564 C355.904,52.1214 346.235,55.3724 332.34,61.8694 C332.993,106.2704 331.461,168.7464 329.736,213.4334" id="Fill-33" fill="#FA3239" blush:i="0.1.0.1.0.1.10"/><path d="M236.3395,0.869 C195.3395,5.869 191.4425,40.633 208.7025,44.116 C222.3395,46.869 231.0835,62.877 243.0435,69.026 C245.7115,70.398 248.8535,68.297 248.6445,65.304 C248.5855,64.456 248.5265,63.613 248.4675,62.777 C247.8105,53.506 249.1965,41.648 258.4905,41.719 C275.1535,41.843 300.1045,41.824 316.1355,41.683 C324.8315,41.606 331.9945,49.511 332.2055,58.205 C332.2405,59.632 332.2735,61.076 332.3025,62.534 C332.3605,65.473 335.5475,67.279 338.0985,65.818 C348.9075,59.627 356.2845,51.64 358.5705,42.757 C359.0665,40.832 359.3395,38.868 359.3395,36.869 C359.3395,13.673 278.0075,-4.212 236.3395,0.869" id="Fill-35" fill="#CC2935" blush:i="0.1.0.1.0.1.11"/></g></g></g><g id="Head" transform="translate(288.000000, -61.000000) scale(1 1)" blush:width="127" blush:height="211" blush:component="Head" blush:i="0.1.0.2"><g id="Head/Flat Top" stroke="none" stroke-width="1" fill="none" fill-rule="evenodd" blush:i="0.1.0.2.0"><g id="Head" transform="translate(22.000000, 63.000000)" blush:i="0.1.0.2.0.0"><g id="head" transform="translate(0.000000, 9.000100)" fill="#ae5d29" blush:skin="500" blush:i="0.1.0.2.0.0.0"><path d="M13,62 L58,62 L58,113.633 C58,127.538 47.926,138.81 35.5,138.81 C23.074,138.81 13,127.538 13,113.633 L13,62 Z" id="SKIN" blush:i="0.1.0.2.0.0.0.0"/><path d="M60.0525,94 L55.0655,94 C31.8335,94 13.0005,75.167 13.0005,51.935 L13.0005,32.203 C13.0005,14.418 27.4175,0 45.2035,0 L50.7965,0 C68.5825,0 83.0005,14.418 83.0005,32.203 L83.0005,71.052 C83.0005,83.726 72.7265,94 60.0525,94" id="SKIN" blush:i="0.1.0.2.0.0.0.1"/><path d="M25,58.5 C25,65.403 19.404,71 12.5,71 C5.596,71 0,65.403 0,58.5 C0,51.597 5.596,46 12.5,46 C19.404,46 25,51.597 25,58.5" id="SKIN" blush:i="0.1.0.2.0.0.0.2"/></g><path d="M10.067,62.1685 C10.9718309,62.1685 12.2239875,62.3771928 13.5088204,63.0196092 C15.6553998,64.0928989 17.0130325,66.055328 17.10411,68.9021045 L17.109,69.2105 L14.109,69.2105 C14.109,67.3751144 13.4076866,66.3231443 12.1671796,65.7028908 C11.7065142,65.4725581 11.1976823,65.3199085 10.686339,65.2346846 C10.4347302,65.1927498 10.2385731,65.1747448 10.1250097,65.169908 L10.067,65.1685 L10.067,62.1685 Z" id="ear-line" fill="#000" blush:i="0.1.0.2.0.0.1"/><path d="M34.7507501,105.331776 C25.4557924,102.043669 20.8185822,93.7387742 18.9822222,82.5681961 C26.2532122,94.6702724 39.4406226,102.813326 54.5439426,102.996833 L55.0655,103 L58,103 C50.0632106,107.229839 42.3134606,108.007098 34.7507501,105.331776 Z" id="SHADOW" fill="#000" opacity=".12" blush:i="0.1.0.2.0.0.2"/><path d="M13,6 C13,2.6862915 15.6862915,0 19,0 L75.0605946,0 C78.3505445,0 81.0268922,2.64931904 81.0602855,5.93909942 L81.3043911,29.9874422 C81.3011548,29.9903978 81.3027734,29.9947366 81.3043911,29.9990758 L25.523517,29.9997374 L17.2669596,55.0001 L13,55.0001 L13,6 Z" id="Path" fill="#000" blush:i="0.1.0.2.0.0.3"/></g></g></g><g id="Expression" transform="translate(335.000000, 34.000000) scale(1 1)" fill="#000" blush:width="61" blush:height="61" blush:component="Expression" blush:i="0.1.0.3"><defs blush:i="0.1.0.3.0"><filter id="expressionwink-filter-1" blush:i="0.1.0.3.0.0"><feColorMatrix in="SourceGraphic" values="0 0 0 0 0.000000 0 0 0 0 0.000000 0 0 0 0 0.000000 0 0 0 1.000000 0" blush:i="0.1.0.3.0.0.0"/></filter></defs><g id="Expression/Wink" stroke="none" stroke-width="1" fill="none" fill-rule="evenodd" blush:i="0.1.0.3.1"><g filter="url(#expressionwink-filter-1)" id="Group-17" blush:i="0.1.0.3.1.0"><g transform="translate(9.000000, 3.000000)" blush:i="0.1.0.3.1.0.0"><path d="M37.6862,19.0627 C37.6862,17.4057 36.3432,16.0627 34.6862,16.0627 C33.0292,16.0627 31.6862,17.4057 31.6862,19.0627 C31.6862,20.7197 33.0292,22.0627 34.6862,22.0627 C36.3432,22.0627 37.6862,20.7197 37.6862,19.0627" id="Fill-1" fill="#000" blush:i="0.1.0.3.1.0.0.0"/><path d="M13.0473,38.6487 C13.0473,42.3229625 16.7893817,45.7208933 20.8069435,45.8527329 L21.0483,45.8567 L21.0483,48.8567 C15.4506295,48.8567 10.2215019,44.2907163 10.0515594,38.9179911 L10.0473,38.6487 L13.0473,38.6487 Z" id="Stroke-5" fill="#000" fill-rule="nonzero" blush:i="0.1.0.3.1.0.0.1"/><path d="M2.57564697,9.21147847 C6.2616177,8.06796663 10.3535814,7.81561498 14.5680667,8.99954871 L15.0368326,9.13703524 L14.1597674,12.0059648 C10.4145271,10.8610011 6.75307649,11.056551 3.46455381,12.0767611 C2.87639473,12.2592278 2.35407493,12.4536573 1.90571976,12.6462124 L1.67798076,12.7466018 L1.40843093,12.875962 L0.000169065366,10.227038 C0.505632486,9.95831572 1.38329457,9.5813862 2.57564697,9.21147847 Z" id="Stroke-7" fill="#000" fill-rule="nonzero" blush:i="0.1.0.3.1.0.0.2"/><path d="M27.4327673,1.61074391 C31.7294847,0.539609121 35.85137,0.927023851 39.5454285,2.22070874 C40.6627133,2.61198958 41.5287224,3.00892816 42.1054952,3.32415386 L42.3911858,3.48746626 L40.8460142,6.05893374 L40.6830708,5.96779273 C40.5848397,5.91521377 40.4526078,5.84736079 40.2880352,5.76752086 C39.7889686,5.52540617 39.2078998,5.28115198 38.5538553,5.05210108 C35.5067759,3.98499275 32.1271224,3.6348104 28.6169983,4.41363387 L28.1584327,4.52165609 L27.4327673,1.61074391 Z" id="Stroke-9" fill="#000" fill-rule="nonzero" blush:i="0.1.0.3.1.0.0.3"/><path d="M2.29348496,21.505614 C4.78316311,15.2814186 15.5765131,15.2055138 17.1047395,21.5313094 L17.157071,21.7685258 L14.215329,22.3568742 C13.5401751,18.9811049 6.8011145,18.9218809 5.16179365,22.4285178 L5.07891504,22.619786 L2.29348496,21.505614 Z" id="Stroke-15" fill="#000" fill-rule="nonzero" blush:i="0.1.0.3.1.0.0.4"/></g></g><polygon id="Stroke-5" fill="#000" fill-rule="nonzero" points="33.1977829 19.396766 36.1476171 18.850434 40.4350211 41.9996 30.5607 41.9996 30.5607 38.9996 36.828 38.999" blush:i="0.1.0.3.1.1"/></g></g><g id="Accessories" transform="translate(322.000000, 56.000000) scale(1 1)" fill="#000" blush:width="76" blush:height="48" blush:component="Accessories" blush:i="0.1.0.4"><g id="Accessories/None" stroke="none" stroke-width="1" fill="none" fill-rule="evenodd" fill-opacity="0" blush:i="0.1.0.4.0"/></g><g id="Glasses" transform="translate(314.000000, 42.000000) scale(1 1)" fill="#000" blush:width="95" blush:height="32" blush:component="Glasses" blush:i="0.1.0.5"><g id="Glasses/None" stroke="none" stroke-width="1" fill="none" fill-rule="evenodd" fill-opacity="0" blush:i="0.1.0.5.0"/></g></g></g></g></svg>