<svg viewBox="0 -7.5 2499.9999999999995 1374.9999999999995" xmlns="http://www.w3.org/2000/svg" xmlns:xlink="http://www.w3.org/1999/xlink" xmlns:blush="http://design.blush" overflow="visible" width="1000px" height="549.9999999999999px"><g id="Master/Composition/Small City" stroke="none" stroke-width="1" fill="none" fill-rule="evenodd" blush:i="0"><g id="bg" blush:i="0.0"><g id="Sky" blush:width="2500" blush:height="1024" blush:component="Sky" blush:i="0.0.0" transform="scale(1 1)"><defs blush:i="0.0.0.0"><linearGradient x1="50%" y1="0%" x2="50%" y2="100%" id="skyfoggy-linearGradient-1" blush:i="0.0.0.0.0"><stop stop-color="#D5ECFF" stop-opacity=".5" offset="0%" blush:i="0.0.0.0.0.0"/><stop stop-color="#FFF" stop-opacity="0" offset="100%" blush:i="0.0.0.0.0.1"/></linearGradient><linearGradient x1="50%" y1="0%" x2="50%" y2="100%" id="skyfoggy-linearGradient-2" blush:i="0.0.0.0.1"><stop stop-color="#D5ECFF" stop-opacity=".5" offset="0%" blush:i="0.0.0.0.1.0"/><stop stop-color="#FFF" stop-opacity="0" offset="100%" blush:i="0.0.0.0.1.1"/></linearGradient><linearGradient x1="50%" y1="0%" x2="50%" y2="100%" id="skyfoggy-linearGradient-3" blush:i="0.0.0.0.2"><stop stop-color="#98D1FF" stop-opacity=".5" offset="0%" blush:i="0.0.0.0.2.0"/><stop stop-color="#FFF" stop-opacity="0" offset="100%" blush:i="0.0.0.0.2.1"/></linearGradient><linearGradient x1="50%" y1="0%" x2="50%" y2="100%" id="skyfoggy-linearGradient-4" blush:i="0.0.0.0.3"><stop stop-color="#98D1FF" stop-opacity=".5" offset="0%" blush:i="0.0.0.0.3.0"/><stop stop-color="#FFF" stop-opacity="0" offset="100%" blush:i="0.0.0.0.3.1"/></linearGradient><linearGradient x1="50%" y1="0%" x2="50%" y2="100%" id="skyfoggy-linearGradient-5" blush:i="0.0.0.0.4"><stop stop-color="#70BFFF" stop-opacity=".5" offset="0%" blush:i="0.0.0.0.4.0"/><stop stop-color="#FFF" stop-opacity="0" offset="100%" blush:i="0.0.0.0.4.1"/></linearGradient><linearGradient x1="50%" y1="0%" x2="50%" y2="100%" id="skyfoggy-linearGradient-6" blush:i="0.0.0.0.5"><stop stop-color="#70BFFF" stop-opacity=".5" offset="0%" blush:i="0.0.0.0.5.0"/><stop stop-color="#FFF" stop-opacity="0" offset="100%" blush:i="0.0.0.0.5.1"/></linearGradient><linearGradient x1="50%" y1="0%" x2="50%" y2="100%" id="skyfoggy-linearGradient-7" blush:i="0.0.0.0.6"><stop stop-color="#D5ECFF" stop-opacity=".5" offset="0%" blush:i="0.0.0.0.6.0"/><stop stop-color="#FFF" stop-opacity="0" offset="100%" blush:i="0.0.0.0.6.1"/></linearGradient><linearGradient x1="50%" y1="0%" x2="50%" y2="100%" id="skyfoggy-linearGradient-8" blush:i="0.0.0.0.7"><stop stop-color="#70BFFF" stop-opacity=".5" offset="0%" blush:i="0.0.0.0.7.0"/><stop stop-color="#FFF" stop-opacity="0" offset="100%" blush:i="0.0.0.0.7.1"/></linearGradient></defs><g id="Sky/Foggy" stroke="none" stroke-width="1" fill="none" fill-rule="evenodd" blush:i="0.0.0.1"><path d="M488.855729,0 C565.364726,0 633.683361,35.2788279 678.615772,90.5488767 C702.584743,73.0839841 732.0596,62.7874596 763.924907,62.7874596 C827.960213,62.7874596 882.342072,104.368315 901.848638,162.155902 C915.297468,158.026032 929.578593,155.805918 944.375141,155.805918 C1024.80153,155.805918 1090,221.398026 1090,302.309991 C1090,304.889165 1089.93375,307.452773 1089.80287,309.999187 L66,309.99858 C69.2467121,242.270746 124.85715,188.362379 192.983,188.362379 C212.699414,188.362379 231.367549,192.877695 248.021447,200.936538 C269.258548,86.5654315 369.008587,0 488.855729,0 Z" id="Karl-the-Fog" fill="url(#skyfoggy-linearGradient-1)" transform="translate(578.000000, 155.000000) scale(-1, 1) translate(-578.000000, -155.000000)" blush:i="0.0.0.1.0"/><path d="M1914.79299,95.998452 C1982.401,95.998452 2042.77151,127.198613 2082.47647,176.078745 C2103.65628,160.633002 2129.70223,151.526754 2157.86055,151.526754 C2214.44582,151.526754 2262.50077,188.300038 2279.73806,239.406298 C2291.62212,235.754384 2304.24191,233.790905 2317.31717,233.790905 C2388.38673,233.790905 2446,291.799596 2446,363.356943 C2446,365.584486 2445.94417,367.798901 2445.83384,369.998845 L1541.14009,369.997977 C1544.08816,310.174963 1593.19524,262.583358 1653.34215,262.583358 C1670.7646,262.583358 1687.26075,266.576567 1701.97703,273.703571 C1720.74454,172.554989 1808.88934,95.998452 1914.79299,95.998452 Z" id="Karl-the-Fog" fill="url(#skyfoggy-linearGradient-2)" transform="translate(1993.500000, 233.000000) scale(-1, 1) translate(-1993.500000, -233.000000)" blush:i="0.0.0.1.1"/><path d="M823.792985,154.998452 C891.401003,154.998452 951.771506,186.198613 991.476468,235.078745 C1012.65628,219.633002 1038.70223,210.526754 1066.86055,210.526754 C1123.44582,210.526754 1171.50077,247.300038 1188.73806,298.406298 C1200.62212,294.754384 1213.24191,292.790905 1226.31717,292.790905 C1297.38673,292.790905 1355,350.799596 1355,422.356943 C1355,424.584486 1354.94417,426.798901 1354.83384,428.998845 L450.140092,428.997977 C453.088164,369.174963 502.195237,321.583358 562.342154,321.583358 C579.764604,321.583358 596.260747,325.576567 610.977029,332.703571 C629.744539,231.554989 717.889337,154.998452 823.792985,154.998452 Z" id="Karl-the-Fog" fill="url(#skyfoggy-linearGradient-3)" transform="translate(902.500000, 292.000000) scale(-1, 1) translate(-902.500000, -292.000000)" blush:i="0.0.0.1.2"/><path d="M1333.42295,119 C1475.37122,119 1602.27573,183.875591 1686.50441,285.794922 L1689.039,288.89 L1690.37955,287.918946 C1735.06706,255.741476 1789.79693,236.806514 1848.91755,236.806514 C1967.72281,236.806514 2068.79709,313.270652 2106.27755,420.004516 L2107.391,423.241 L2108.73516,422.832691 C2133.55373,415.352843 2159.85654,411.334683 2187.0911,411.334683 C2337.81452,411.334683 2460,534.403487 2460,686.216549 C2460,690.838549 2459.88674,695.433905 2459.66287,699.999955 L541.000007,699.99855 C547.405079,573.224932 651.48554,472.419542 778.941372,472.419542 C815.480839,472.419542 850.099146,480.70447 881.045654,495.511032 L882.072,496.005 L883.31028,489.586589 C925.629746,278.187196 1111.0697,119 1333.42295,119 Z" id="Karl-the-Fog" fill="url(#skyfoggy-linearGradient-4)" transform="translate(1500.500000, 409.500000) scale(-1, 1) translate(-1500.500000, -409.500000)" blush:i="0.0.0.1.3"/><path d="M1149.79299,425.998452 C1217.401,425.998452 1277.77151,457.198613 1317.47647,506.078745 C1338.65628,490.633002 1364.70223,481.526754 1392.86055,481.526754 C1449.44582,481.526754 1497.50077,518.300038 1514.73806,569.406298 C1526.62212,565.754384 1539.24191,563.790905 1552.31717,563.790905 C1623.38673,563.790905 1681,621.799596 1681,693.356943 C1681,695.584486 1680.94417,697.798901 1680.83384,699.998845 L776.140092,699.997977 C779.088164,640.174963 828.195237,592.583358 888.342154,592.583358 C905.764604,592.583358 922.260747,596.576567 936.977029,603.703571 C955.744539,502.554989 1043.88934,425.998452 1149.79299,425.998452 Z" id="Karl-the-Fog" fill="url(#skyfoggy-linearGradient-3)" transform="translate(1228.500000, 563.000000) scale(-1, 1) translate(-1228.500000, -563.000000)" blush:i="0.0.0.1.4"/><path d="M1788.5,803.998452 C1853.7431,803.998452 1908.35803,845.749872 1922.33844,901.721229 C1940.48987,893.594175 1960.8872,889.035835 1982.4449,889.035835 C2036.6357,889.035835 2083.4942,917.839865 2105.82603,959.671718 C2112.96629,957.769891 2120.51976,956.750788 2128.33265,956.750788 C2168.13884,956.750788 2201.21089,983.205037 2207.80431,1017.99755 L1369.19569,1017.99755 C1375.78911,983.205037 1408.86116,956.750788 1448.66735,956.750788 C1460.96611,956.750788 1472.62203,959.276113 1483.05277,963.79245 C1503.63996,918.064121 1552.72544,885.886302 1610.00204,885.886302 C1626.52924,885.886302 1642.37443,888.565474 1657.04986,893.476285 C1674.10184,841.699388 1726.50238,803.998452 1788.5,803.998452 Z" id="Karl-the-Fog" fill="url(#skyfoggy-linearGradient-5)" blush:i="0.0.0.1.5"/><path d="M432.106361,448 C510.110816,448 579.76481,483.994555 625.575423,540.385889 C650.012167,522.566709 680.063359,512.061126 712.551767,512.061126 C777.838315,512.061126 833.282839,554.485038 853.170918,613.444404 C866.882694,609.231682 881.443045,606.966499 896.528902,606.966499 C978.527225,606.966499 1045,673.889167 1045,756.442461 C1045,758.976867 1044.93735,761.496542 1044.81352,764 L1,763.999465 C4.45343994,695.032775 61.0897979,640.183379 130.450797,640.183379 C150.552671,640.183379 169.585766,644.790337 186.565229,653.012735 C208.217864,536.320824 309.917234,448 432.106361,448 Z" id="Karl-the-Fog" fill="url(#skyfoggy-linearGradient-6)" transform="translate(523.000000, 606.000000) scale(-1, 1) translate(-523.000000, -606.000000)" blush:i="0.0.0.1.6"/><path d="M1551.76857,684.998452 C1635.28867,684.998452 1709.86785,723.497656 1758.91774,783.812944 C1785.08279,764.753848 1817.25879,753.51732 1852.04431,753.51732 C1921.94751,753.51732 1981.31268,798.893628 2002.60687,861.956046 C2017.28817,857.449534 2032.878,855.026754 2049.03049,855.026754 C2136.82693,855.026754 2208,926.606285 2208,1014.90411 C2208,1017.95668 2207.91494,1020.98926 2207.74706,1023.99959 L1090.13158,1023.99741 C1093.32329,949.757642 1154.1786,890.555056 1228.7829,890.555056 C1250.30605,890.555056 1270.68485,895.48253 1288.86485,904.276986 C1312.04878,779.465238 1420.93937,684.998452 1551.76857,684.998452 Z" id="Karl-the-Fog" fill="url(#skyfoggy-linearGradient-7)" transform="translate(1649.000000, 854.500000) scale(-1, 1) translate(-1649.000000, -854.500000)" blush:i="0.0.0.1.7"/><path d="M751.768572,684.998452 C835.288668,684.998452 909.867854,723.497656 958.917743,783.812944 C985.082793,764.753848 1017.25879,753.51732 1052.04431,753.51732 C1121.94751,753.51732 1181.31268,798.893628 1202.60687,861.956046 C1217.28817,857.449534 1232.878,855.026754 1249.03049,855.026754 C1336.82693,855.026754 1408,926.606285 1408,1014.90411 C1408,1017.95668 1407.91494,1020.98926 1407.74706,1023.99959 L290.13158,1023.99741 C293.323288,949.757642 354.178603,890.555056 428.782904,890.555056 C450.306048,890.555056 470.684854,895.48253 488.864851,904.276986 C512.048784,779.465238 620.939372,684.998452 751.768572,684.998452 Z" id="Karl-the-Fog" fill="url(#skyfoggy-linearGradient-8)" blush:i="0.0.0.1.8"/></g></g><g id="Horizon" transform="translate(0.000000, 537.000000) scale(1 1)" blush:width="2500" blush:height="660" blush:component="Horizon" blush:i="0.0.1"><g id="Horizon/Beach" stroke="none" stroke-width="1" fill="none" fill-rule="evenodd" blush:i="0.0.1.0"><g id="Mountain-Group" transform="translate(992.000000, -25.000000)" blush:i="0.0.1.0.0"><g id="Mountain" transform="translate(517.000000, 90.000000)" fill="#CECCFF" blush:i="0.0.1.0.0.0"><polygon id="Mountain-Body" points="296.627827 0 607 406 -1.7694336e-12 406 109.864414 195.767728 185.315325 152.355482" blush:i="0.0.1.0.0.0.0"/></g><g id="Mountain" transform="translate(634.000000, 0.000000)" fill="#A39FFF" blush:i="0.0.1.0.0.1"><polygon id="Mountain-Body" points="417.438339 0 468.352978 5.74594476 668 496 -2.21644231e-12 496 69.3771739 361.566119 170.08547 301.266676 211.230286 219.24133 286.003885 172.208378" blush:i="0.0.1.0.0.1.0"/></g><g id="Mountain" transform="translate(0.000000, 209.000000)" blush:i="0.0.1.0.0.2"><polygon id="Mountain-Body" fill="#7364FF" points="1234.17291 0 1381.43854 168.736118 1473.12573 211.375237 1508 287 937 287 992.231924 223.715577 1059.45357 200.192427" blush:i="0.0.1.0.0.2.0"/><polygon id="Mountain-Body" fill="#E8E7FF" points="164.459966 128 205.446642 142.188687 245.958983 221.480985 296.700052 245.103354 316 287 -1.99534833e-13 287 30.5661785 251.939989 67.7676501 238.907999" blush:i="0.0.1.0.0.2.1"/></g></g><rect id="Green" fill="#FFC30D" x="0" y="471" width="2500" height="189" blush:i="0.0.1.0.1"/><g id="Lake" transform="translate(-0.000000, 457.000000)" blush:i="0.0.1.0.2"><path d="M4.54747351e-13,4 C684.079838,5.49974349 1176.32158,8.91290302 1476.72523,14.2394786 C1537.35701,15.3145646 1587.93625,22.7358478 1628.46294,28.5033281 C1653.21868,32.0263948 1674.22343,32.4249169 1691.47719,37.6988943 C1707.83753,42.6997757 1711.05782,54.8114928 1727.39868,69.1251689 C1741.79415,81.7347871 1763.50035,79.060077 1763.50035,101.5 C1763.50035,114.558834 1734.63076,135.237298 1692.89159,163.53539 C1675.45071,175.359858 1788.11036,199.49218 1637.63735,203 L4.54747351e-13,203 L4.54747351e-13,4 Z" id="water" fill="#C90" blush:i="0.0.1.0.2.0"/><path d="M4.54747351e-13,0 C639.151693,1.52988909 1099.06459,5.01165484 1379.7387,10.4452972 C1489.51775,12.5705381 1567.27793,25.4736513 1599.8047,45.9903171 C1611.42364,53.3191086 1603.31239,60.7469906 1608.3272,70.2208932 C1613.76062,80.4856355 1668.9483,95.3387324 1653.2365,116.629807 C1642.06884,131.763123 1601.01755,160.553188 1530.08264,203 L4.54747351e-13,203 L4.54747351e-13,0 Z" id="water" fill="#E8E7FF" blush:i="0.0.1.0.2.1"/><path d="M-3.41060513e-13,0 C608.485026,1.52988909 1053.06459,5.01165484 1333.7387,10.4452972 C1456.01576,12.8124903 1535.53373,24.3303905 1570.29263,48.9989979 C1570.84998,49.3945542 1570.39608,51.7929774 1570.93093,52.1942677 C1578.58616,57.9378771 1570.29263,65.9261432 1575.42854,75.7078461 C1579.33246,83.1431471 1615.79241,93.8436431 1604.56806,109.68753 C1593.98993,124.619232 1553.82812,155.723389 1484.08264,203 L-3.41060513e-13,203 L-3.41060513e-13,0 Z" id="water" fill="#5628D2" blush:i="0.0.1.0.2.2"/></g><g id="Island" transform="translate(102.000000, 441.000000)" blush:i="0.0.1.0.3"><ellipse id="water" fill="#E8E7FF" cx="257" cy="64.5" rx="257" ry="24.5" blush:i="0.0.1.0.3.0"/><path d="M494,63.619469 C494,63.619469 320.977208,0 264,0 C207.022792,0 34,63.619469 34,63.619469 C34,63.619469 149.578049,79 264,79 C379.572295,79 494,63.619469 494,63.619469 Z" id="Dune-Copy" fill="#FFC30D" blush:i="0.0.1.0.3.1"/></g></g></g><g id="Street" transform="translate(0.000000, 1197.000000)" blush:i="0.0.2"><rect fill="#CECCFF" width="2500" height="163" blush:i="0.0.2.0"/><rect id="sidewalk" fill="#A39FFF" x="0" y="0" width="2500" height="8" blush:i="0.0.2.1"/></g></g><g id="Building/Skyscraper" transform="translate(757.000000, 239.000000) scale(1 1)" blush:width="408" blush:height="958" blush:component="Building/Skyscraper" blush:i="0.1"><g id="Building/Skyscraper/2" stroke="none" stroke-width="1" fill="none" fill-rule="evenodd" blush:i="0.1.0"><rect id="Rectangle-Copy" fill="#CECCFF" x="48" y="0" width="208" height="958" blush:i="0.1.0.0"/><rect id="Rectangle-Copy-2" fill="#7364FF" x="256" y="0" width="104" height="958" blush:i="0.1.0.1"/><rect id="Rectangle-Copy-46" fill="#7364FF" x="64" y="885" width="48" height="73" blush:i="0.1.0.2"/><rect id="Rectangle-Copy-5" fill="#5628D2" x="64" y="136" width="176" height="46" blush:i="0.1.0.3"/><rect id="Rectangle-Copy-36" fill="#5628D2" x="64" y="37" width="176" height="46" blush:i="0.1.0.4"/><rect id="Rectangle-Copy-21" fill="#370EA3" x="278" y="136" width="75" height="46" blush:i="0.1.0.5"/><rect id="Rectangle-Copy-37" fill="#370EA3" x="278" y="37" width="75" height="46" blush:i="0.1.0.6"/><rect id="Rectangle-Copy-22" fill="#370EA3" x="278" y="224" width="75" height="46" blush:i="0.1.0.7"/><rect id="Rectangle-Copy-23" fill="#FFC30D" x="278" y="312" width="75" height="46" blush:i="0.1.0.8"/><rect id="Rectangle-Copy-26" fill="#370EA3" x="278" y="400" width="75" height="46" blush:i="0.1.0.9"/><rect id="Rectangle-Copy-27" fill="#370EA3" x="278" y="488" width="75" height="46" blush:i="0.1.0.10"/><rect id="Rectangle-Copy-28" fill="#370EA3" x="278" y="576" width="75" height="46" blush:i="0.1.0.11"/><rect id="Rectangle-Copy-31" fill="#370EA3" x="278" y="664" width="75" height="46" blush:i="0.1.0.12"/><rect id="Rectangle-Copy-32" fill="#370EA3" x="278" y="752" width="75" height="46" blush:i="0.1.0.13"/><rect id="Rectangle-Copy-33" fill="#370EA3" x="278" y="885" width="75" height="73" blush:i="0.1.0.14"/><rect id="Rectangle-Copy-6" fill="#5628D2" x="64" y="224" width="176" height="46" blush:i="0.1.0.15"/><rect id="Rectangle-Copy-7" fill="#FFC30D" x="64" y="312" width="176" height="46" blush:i="0.1.0.16"/><rect id="Rectangle-Copy-8" fill="#5628D2" x="64" y="400" width="176" height="46" blush:i="0.1.0.17"/><rect id="Rectangle-Copy-9" fill="#5628D2" x="64" y="488" width="176" height="46" blush:i="0.1.0.18"/><rect id="Rectangle-Copy-16" fill="#5628D2" x="64" y="576" width="176" height="46" blush:i="0.1.0.19"/><rect id="Rectangle-Copy-17" fill="#5628D2" x="64" y="664" width="176" height="46" blush:i="0.1.0.20"/><rect id="Rectangle-Copy-18" fill="#5628D2" x="64" y="752" width="176" height="46" blush:i="0.1.0.21"/><rect id="Rectangle-Copy-48" fill="#5628D2" x="192" y="885" width="48" height="73" blush:i="0.1.0.22"/><rect id="Rectangle-Copy-10" fill="#E8E7FF" x="40" y="99" width="224" height="16" blush:i="0.1.0.23"/><rect id="Rectangle-Copy-38" fill="#E8E7FF" x="40" y="0" width="224" height="16" blush:i="0.1.0.24"/><rect id="Rectangle-Copy-11" fill="#E8E7FF" x="40" y="198" width="224" height="16" blush:i="0.1.0.25"/><rect id="Rectangle-Copy-12" fill="#E8E7FF" x="40" y="286" width="224" height="16" blush:i="0.1.0.26"/><rect id="Rectangle-Copy-19" fill="#E8E7FF" x="40" y="374" width="224" height="16" blush:i="0.1.0.27"/><rect id="Rectangle-Copy-24" fill="#E8E7FF" x="40" y="462" width="224" height="16" blush:i="0.1.0.28"/><rect id="Rectangle-Copy-29" fill="#E8E7FF" x="40" y="550" width="224" height="16" blush:i="0.1.0.29"/><rect id="Rectangle-Copy-34" fill="#E8E7FF" x="40" y="638" width="224" height="16" blush:i="0.1.0.30"/><rect id="Rectangle-Copy-39" fill="#E8E7FF" x="40" y="726" width="224" height="16" blush:i="0.1.0.31"/><rect id="Rectangle-Copy-44" fill="#E8E7FF" x="40" y="814" width="224" height="16" blush:i="0.1.0.32"/><rect id="Rectangle-Copy-13" fill="#A39FFF" x="264" y="99" width="104" height="16" blush:i="0.1.0.33"/><rect id="Rectangle-Copy-41" fill="#A39FFF" x="264" y="0" width="104" height="16" blush:i="0.1.0.34"/><rect id="Rectangle-Copy-14" fill="#A39FFF" x="264" y="198" width="104" height="16" blush:i="0.1.0.35"/><rect id="Rectangle-Copy-15" fill="#A39FFF" x="264" y="286" width="104" height="16" blush:i="0.1.0.36"/><rect id="Rectangle-Copy-20" fill="#A39FFF" x="264" y="374" width="104" height="16" blush:i="0.1.0.37"/><rect id="Rectangle-Copy-25" fill="#A39FFF" x="264" y="462" width="104" height="16" blush:i="0.1.0.38"/><rect id="Rectangle-Copy-30" fill="#A39FFF" x="264" y="550" width="104" height="16" blush:i="0.1.0.39"/><rect id="Rectangle-Copy-35" fill="#A39FFF" x="264" y="638" width="104" height="16" blush:i="0.1.0.40"/><rect id="Rectangle-Copy-40" fill="#A39FFF" x="264" y="726" width="104" height="16" blush:i="0.1.0.41"/><rect id="Rectangle-Copy-45" fill="#A39FFF" x="264" y="814" width="104" height="16" blush:i="0.1.0.42"/></g></g><g id="Tree/Medium" transform="translate(161.000000, 1061.000000) scale(1 1)" blush:width="96" blush:height="136" blush:component="Tree/Medium" blush:i="0.2"><g id="Tree/Medium/9" stroke="none" stroke-width="1" fill="none" fill-rule="evenodd" blush:i="0.2.0"><path d="M48,112 C74.509668,112 96,103.07209 96,72.1441441 C96,41.2161982 74.509668,0 48,0 C21.490332,0 0,41.2161982 0,72.1441441 C0,103.07209 21.490332,112 48,112 Z" id="Oval" fill="#00D745" blush:i="0.2.0.0"/><rect id="Rectangle" fill="#02A837" x="47" y="40" width="4" height="96" blush:i="0.2.0.1"/></g></g><g id="Building/Small" transform="translate(225.000000, 1037.000000) scale(1 1)" blush:width="296" blush:height="160" blush:component="Building/Small" blush:i="0.3"><g id="Building/Small/5" stroke="none" stroke-width="1" fill="none" fill-rule="evenodd" blush:i="0.3.0"><g id="Group" transform="translate(0.000000, 64.000000)" blush:i="0.3.0.0"><rect id="Rectangle" fill="#A39FFF" x="8" y="7" width="195" height="89" blush:i="0.3.0.0.0"/><rect id="Rectangle-Copy-2" fill="#A39FFF" x="203" y="0" width="93" height="7" blush:i="0.3.0.0.1"/><rect id="Rectangle" fill="#7364FF" x="203" y="7" width="88" height="89" blush:i="0.3.0.0.2"/><rect id="Rectangle" fill="#FFE38E" x="14" y="13" width="46" height="83" blush:i="0.3.0.0.3"/><rect id="Rectangle" fill="#FFE38E" x="151" y="13" width="46" height="83" blush:i="0.3.0.0.4"/><rect id="Rectangle" fill="#A39FFF" x="8" y="54" width="195" height="7" blush:i="0.3.0.0.5"/><rect id="Rectangle-Copy-4" fill="#A39FFF" x="8" y="89" width="195" height="7" blush:i="0.3.0.0.6"/><rect id="Rectangle" fill="#E8E7FF" x="64" y="7" width="77" height="89" blush:i="0.3.0.0.7"/><rect id="Rectangle" fill="#CECCFF" x="141" y="7" width="6" height="89" blush:i="0.3.0.0.8"/><rect id="Rectangle-Copy" fill="#CECCFF" x="0" y="0" width="211" height="7" blush:i="0.3.0.0.9"/><polygon id="Rectangle" fill="#7364FF" points="79 13 125 13 125 70.8869474 125 96 79 96" blush:i="0.3.0.0.10"/><rect id="Rectangle" fill="#5628D2" x="227" y="13" width="46" height="75" blush:i="0.3.0.0.11"/><rect id="Rectangle-Copy-3" fill="#7364FF" x="203" y="54" width="88" height="7" blush:i="0.3.0.0.12"/></g></g></g><g id="Building/Medium" transform="translate(461.000000, 889.000000) scale(1 1)" blush:width="328" blush:height="308" blush:component="Building/Medium" blush:i="0.4"><g id="Building/Medium/5" stroke="none" stroke-width="1" fill="none" fill-rule="evenodd" blush:i="0.4.0"><g id="Group" blush:i="0.4.0.0"><rect id="Rectangle" fill="#7364FF" x="0" y="115" width="232" height="193" blush:i="0.4.0.0.0"/><rect id="Rectangle" fill="#5628D2" x="232" y="115" width="112" height="193" blush:i="0.4.0.0.1"/><rect id="Rectangle" fill="#5628D2" x="92" y="231" width="48" height="77" blush:i="0.4.0.0.2"/><rect id="Rectangle" fill="#CECCFF" x="24" y="230" width="48" height="48" blush:i="0.4.0.0.3"/><rect id="Rectangle" fill="#CECCFF" x="24" y="149" width="48" height="48" blush:i="0.4.0.0.4"/><rect id="Rectangle" fill="#CECCFF" x="160" y="230" width="48" height="48" blush:i="0.4.0.0.5"/><rect id="Rectangle" fill="#CECCFF" x="160" y="149" width="48" height="48" blush:i="0.4.0.0.6"/><rect id="Rectangle" fill="#FFC30D" x="92" y="149" width="48" height="48" blush:i="0.4.0.0.7"/><rect id="Rectangle" fill="#A39FFF" x="264" y="149" width="48" height="48" blush:i="0.4.0.0.8"/><rect id="Rectangle" fill="#FFC30D" x="264" y="230" width="48" height="48" blush:i="0.4.0.0.9"/><rect id="Rectangle" fill="#CECCFF" x="92" y="65" width="48" height="48" rx="24" blush:i="0.4.0.0.10"/><rect id="Rectangle-Copy" fill="#5628D2" x="110" y="16" width="160" height="100" blush:i="0.4.0.0.11"/><rect id="Rectangle" fill="#7364FF" x="0" y="16" width="160" height="100" blush:i="0.4.0.0.12"/><rect id="Rectangle-Copy-2" fill="#CECCFF" x="24" y="29" width="48" height="73" blush:i="0.4.0.0.13"/><rect id="Rectangle-Copy-3" fill="#CECCFF" x="92" y="29" width="48" height="73" blush:i="0.4.0.0.14"/><rect id="Rectangle-Copy-4" fill="#A39FFF" x="160" y="0" width="119" height="16" blush:i="0.4.0.0.15"/><rect id="Rectangle-Copy-5" fill="#CECCFF" x="160" y="100" width="86" height="16" blush:i="0.4.0.0.16"/><rect id="Rectangle-Copy-6" fill="#A39FFF" x="246" y="100" width="109" height="16" blush:i="0.4.0.0.17"/><rect id="Rectangle-Copy" fill="#CECCFF" x="0" y="0" width="171" height="16" blush:i="0.4.0.0.18"/></g></g></g><g id="Tree/Medium" transform="translate(673.000000, 1061.000000) scale(1 1)" blush:width="96" blush:height="136" blush:component="Tree/Medium" blush:i="0.5"><g id="Tree/Medium/5" stroke="none" stroke-width="1" fill="none" fill-rule="evenodd" blush:i="0.5.0"><rect id="Rectangle" fill="#02A837" x="46" y="14" width="6" height="122" blush:i="0.5.0.0"/><polygon id="Triangle" fill="#02A837" points="48 -39 101 114 -5 114" blush:i="0.5.0.1"/></g></g><g id="Building/Medium" transform="translate(728.000000, 889.000000) scale(1 1)" blush:width="328" blush:height="308" blush:component="Building/Medium" blush:i="0.6"><g id="Building/Medium/1" stroke="none" stroke-width="1" fill="none" fill-rule="evenodd" blush:i="0.6.0"><path d="M136,0 C147.045695,0 156,8.954305 156,20 L156,30 L116,30 L116,20 C116,16.222207 110.179718,3.01395126 112,0 L136,0 Z" id="Rectangle" fill="#7364FF" blush:i="0.6.0.0"/><rect id="Rectangle" fill="#E8E7FF" x="8" y="36" width="208" height="272" blush:i="0.6.0.1"/><rect id="Rectangle" fill="#CECCFF" x="216" y="36" width="104" height="272" blush:i="0.6.0.2"/><path d="M40,62 C48.836556,62 56,69.163444 56,78 L56,110 L56,110 L24,110 L24,78 C24,69.163444 31.163444,62 40,62 Z" id="Rectangle" fill="#7364FF" blush:i="0.6.0.3"/><path d="M40,148 C48.836556,148 56,155.163444 56,164 L56,196 L56,196 L24,196 L24,164 C24,155.163444 31.163444,148 40,148 Z" id="Rectangle" fill="#FFC30D" blush:i="0.6.0.4"/><path d="M136,62 C144.836556,62 152,69.163444 152,78 L152,110 L152,110 L120,110 L120,78 C120,69.163444 127.163444,62 136,62 Z" id="Rectangle" fill="#FFC30D" blush:i="0.6.0.5"/><path d="M244,62 C252.836556,62 260,69.163444 260,78 L260,110 L260,110 L228,110 L228,78 C228,69.163444 235.163444,62 244,62 Z" id="Rectangle" fill="#5628D2" blush:i="0.6.0.6"/><path d="M244,148 C252.836556,148 260,155.163444 260,164 L260,196 L260,196 L228,196 L228,164 C228,155.163444 235.163444,148 244,148 Z" id="Rectangle" fill="#5628D2" blush:i="0.6.0.7"/><path d="M136,148 C144.836556,148 152,155.163444 152,164 L152,196 L152,196 L120,196 L120,164 C120,155.163444 127.163444,148 136,148 Z" id="Rectangle" fill="#7364FF" blush:i="0.6.0.8"/><path d="M88,62 C96.836556,62 104,69.163444 104,78 L104,110 L104,110 L72,110 L72,78 C72,69.163444 79.163444,62 88,62 Z" id="Rectangle" fill="#7364FF" blush:i="0.6.0.9"/><path d="M88,148 C96.836556,148 104,155.163444 104,164 L104,196 L104,196 L72,196 L72,164 C72,155.163444 79.163444,148 88,148 Z" id="Rectangle" fill="#7364FF" blush:i="0.6.0.10"/><path d="M184,62 C192.836556,62 200,69.163444 200,78 L200,110 L200,110 L168,110 L168,78 C168,69.163444 175.163444,62 184,62 Z" id="Rectangle" fill="#7364FF" blush:i="0.6.0.11"/><path d="M292,62 C300.836556,62 308,69.163444 308,78 L308,110 L308,110 L276,110 L276,78 C276,69.163444 283.163444,62 292,62 Z" id="Rectangle" fill="#5628D2" blush:i="0.6.0.12"/><path d="M292,148 C300.836556,148 308,155.163444 308,164 L308,196 L308,196 L276,196 L276,164 C276,155.163444 283.163444,148 292,148 Z" id="Rectangle" fill="#5628D2" blush:i="0.6.0.13"/><path d="M184,148 C192.836556,148 200,155.163444 200,164 L200,196 L200,196 L168,196 L168,164 C168,155.163444 175.163444,148 184,148 Z" id="Rectangle" fill="#7364FF" blush:i="0.6.0.14"/><rect id="Rectangle" fill="#A39FFF" x="0" y="108" width="224" height="8" blush:i="0.6.0.15"/><rect id="Rectangle" fill="#A39FFF" x="0" y="28" width="224" height="8" blush:i="0.6.0.16"/><rect id="Rectangle" fill="#7364FF" x="224" y="28" width="104" height="8" blush:i="0.6.0.17"/><rect id="Rectangle" fill="#7364FF" x="224" y="108" width="104" height="8" blush:i="0.6.0.18"/><rect id="Rectangle" fill="#7364FF" x="224" y="196" width="104" height="8" blush:i="0.6.0.19"/><rect id="Rectangle" fill="#A39FFF" x="0" y="196" width="224" height="8" blush:i="0.6.0.20"/><path d="M112,0 C123.045695,-2.02906125e-15 132,8.954305 132,20 L132,30 L132,30 L92,30 L92,20 C92,8.954305 100.954305,2.02906125e-15 112,0 Z" id="Rectangle" fill="#A39FFF" blush:i="0.6.0.21"/><path d="M111.5,236 C122.269553,236 131,244.730447 131,255.5 L131,308 L131,308 L92,308 L92,255.5 C92,244.730447 100.730447,236 111.5,236 Z" id="Rectangle" fill="#7364FF" blush:i="0.6.0.22"/><circle id="Oval" fill="#7364FF" cx="112" cy="16" r="8" blush:i="0.6.0.23"/><rect id="Rectangle" fill="#7364FF" x="24" y="236" width="54" height="56" blush:i="0.6.0.24"/><rect id="Rectangle" fill="#7364FF" x="146" y="236" width="54" height="56" blush:i="0.6.0.25"/><rect id="Rectangle" fill="#FFC30D" x="241" y="236" width="54" height="56" blush:i="0.6.0.26"/></g></g><g id="Building/Large" transform="translate(996.000000, 577.000000) scale(1 1)" blush:width="408" blush:height="620" blush:component="Building/Large" blush:i="0.7"><g id="Building/Large/1" stroke="none" stroke-width="1" fill="none" fill-rule="evenodd" blush:i="0.7.0"><rect id="Rectangle" fill="#A39FFF" x="250" y="-30" width="36" height="47" blush:i="0.7.0.0"/><rect id="Rectangle" fill="#A39FFF" x="222" y="-22" width="28" height="39" blush:i="0.7.0.1"/><rect id="Rectangle" fill="#7364FF" x="286" y="-30" width="20" height="47" blush:i="0.7.0.2"/><rect id="Rectangle" fill="#7364FF" x="250" y="-22" width="20" height="39" blush:i="0.7.0.3"/><g id="Group" transform="translate(24.000000, 0.000000)" blush:i="0.7.0.4"><rect id="Rectangle" fill="#A39FFF" x="8" y="0" width="208" height="620" blush:i="0.7.0.4.0"/><rect id="Rectangle" fill="#7364FF" x="216" y="0" width="136" height="620" blush:i="0.7.0.4.1"/><rect id="Rectangle" fill="#5628D2" x="24" y="548" width="48" height="72" blush:i="0.7.0.4.2"/><rect id="Rectangle" fill="#5628D2" x="24" y="156" width="48" height="56" blush:i="0.7.0.4.3"/><rect id="Rectangle" fill="#5628D2" x="24" y="348" width="48" height="56" blush:i="0.7.0.4.4"/><rect id="Rectangle" fill="#370EA3" x="24" y="40" width="48" height="76" blush:i="0.7.0.4.5"/><rect id="Rectangle" fill="#5628D2" x="24" y="252" width="48" height="56" blush:i="0.7.0.4.6"/><rect id="Rectangle" fill="#5628D2" x="88" y="156" width="48" height="56" blush:i="0.7.0.4.7"/><rect id="Rectangle" fill="#5628D2" x="88" y="348" width="48" height="56" blush:i="0.7.0.4.8"/><rect id="Rectangle" fill="#5628D2" x="88" y="40" width="48" height="76" blush:i="0.7.0.4.9"/><rect id="Rectangle" fill="#5628D2" x="88" y="252" width="48" height="56" blush:i="0.7.0.4.10"/><rect id="Rectangle" fill="#CECCFF" x="152" y="156" width="48" height="56" blush:i="0.7.0.4.11"/><rect id="Rectangle" fill="#5628D2" x="152" y="348" width="48" height="56" blush:i="0.7.0.4.12"/><rect id="Rectangle" fill="#5628D2" x="152" y="40" width="48" height="76" blush:i="0.7.0.4.13"/><rect id="Rectangle" fill="#5628D2" x="152" y="252" width="48" height="56" blush:i="0.7.0.4.14"/><rect id="Rectangle" fill="#5628D2" x="243" y="156" width="88" height="56" blush:i="0.7.0.4.15"/><rect id="Rectangle" fill="#5628D2" x="243" y="348" width="88" height="56" blush:i="0.7.0.4.16"/><rect id="Rectangle" fill="#5628D2" x="243" y="40" width="88" height="76" blush:i="0.7.0.4.17"/><rect id="Rectangle" fill="#5628D2" x="243" y="252" width="88" height="56" blush:i="0.7.0.4.18"/><rect id="Rectangle" fill="#CECCFF" x="24" y="444" width="48" height="56" blush:i="0.7.0.4.19"/><rect id="Rectangle" fill="#5628D2" x="88" y="444" width="48" height="56" blush:i="0.7.0.4.20"/><rect id="Rectangle" fill="#5628D2" x="152" y="444" width="48" height="56" blush:i="0.7.0.4.21"/><rect id="Rectangle" fill="#FFC30D" x="243" y="444" width="88" height="56" blush:i="0.7.0.4.22"/><rect id="Rectangle" fill="#370EA3" x="88" y="548" width="112" height="56" blush:i="0.7.0.4.23"/><rect id="Rectangle" fill="#5628D2" x="244" y="548" width="88" height="56" blush:i="0.7.0.4.24"/><rect id="Rectangle" fill="#E8E7FF" x="0" y="0" width="224" height="16" blush:i="0.7.0.4.25"/><rect id="Rectangle" fill="#A39FFF" x="224" y="0" width="136" height="16" blush:i="0.7.0.4.26"/></g></g></g><g id="Building/Wide" transform="translate(1296.000000, 865.000000) scale(1 1)" blush:width="800" blush:height="332" blush:component="Building/Wide" blush:i="0.8"><g id="Building/Wide/5" stroke="none" stroke-width="1" fill="none" fill-rule="evenodd" blush:i="0.8.0"><rect id="Rectangle" fill="#CECCFF" x="0" y="48" width="688" height="284" blush:i="0.8.0.0"/><rect id="Rectangle" fill="#7364FF" x="688" y="52" width="104" height="280" blush:i="0.8.0.1"/><path d="M716,72 C724.836556,72 732,79.163444 732,88 L732,120 L732,120 L700,120 L700,88 C700,79.163444 707.163444,72 716,72 Z" id="Rectangle" fill="#5628D2" blush:i="0.8.0.2"/><path d="M716,158 C724.836556,158 732,165.163444 732,174 L732,206 L732,206 L700,206 L700,174 C700,165.163444 707.163444,158 716,158 Z" id="Rectangle" fill="#5628D2" blush:i="0.8.0.3"/><path d="M764,72 C772.836556,72 780,79.163444 780,88 L780,120 L780,120 L748,120 L748,88 C748,79.163444 755.163444,72 764,72 Z" id="Rectangle" fill="#5628D2" blush:i="0.8.0.4"/><path d="M764,158 C772.836556,158 780,165.163444 780,174 L780,206 L780,206 L748,206 L748,174 C748,165.163444 755.163444,158 764,158 Z" id="Rectangle" fill="#5628D2" blush:i="0.8.0.5"/><rect id="Rectangle" fill="#7364FF" x="688" y="48" width="112" height="8" blush:i="0.8.0.6"/><path d="M36,72 C44.836556,72 52,79.163444 52,88 L52,120 L52,120 L20,120 L20,88 C20,79.163444 27.163444,72 36,72 Z" id="Rectangle" fill="#7364FF" blush:i="0.8.0.7"/><path d="M36,158 C44.836556,158 52,165.163444 52,174 L52,206 L52,206 L20,206 L20,174 C20,165.163444 27.163444,158 36,158 Z" id="Rectangle" fill="#7364FF" blush:i="0.8.0.8"/><path d="M202,72 C210.836556,72 218,79.163444 218,88 L218,120 L218,120 L186,120 L186,88 C186,79.163444 193.163444,72 202,72 Z" id="Rectangle" fill="#7364FF" blush:i="0.8.0.9"/><path d="M202,158 C210.836556,158 218,165.163444 218,174 L218,206 L218,206 L186,206 L186,174 C186,165.163444 193.163444,158 202,158 Z" id="Rectangle" fill="#7364FF" blush:i="0.8.0.10"/><rect id="Rectangle" fill="#FFC30D" x="713" y="236" width="54" height="64" blush:i="0.8.0.11"/><path d="M484,72 C492.836556,72 500,79.163444 500,88 L500,120 L500,120 L468,120 L468,88 C468,79.163444 475.163444,72 484,72 Z" id="Rectangle" fill="#7364FF" blush:i="0.8.0.12"/><path d="M484,158 C492.836556,158 500,165.163444 500,174 L500,206 L500,206 L468,206 L468,174 C468,165.163444 475.163444,158 484,158 Z" id="Rectangle" fill="#7364FF" blush:i="0.8.0.13"/><path d="M648,72 C656.836556,72 664,79.163444 664,88 L664,120 L664,120 L632,120 L632,88 C632,79.163444 639.163444,72 648,72 Z" id="Rectangle" fill="#7364FF" blush:i="0.8.0.14"/><path d="M648,158 C656.836556,158 664,165.163444 664,174 L664,206 L664,206 L632,206 L632,174 C632,165.163444 639.163444,158 648,158 Z" id="Rectangle" fill="#7364FF" blush:i="0.8.0.15"/><path d="M36,254 C44.836556,254 52,261.163444 52,270 L52,302 L52,302 L20,302 L20,270 C20,261.163444 27.163444,254 36,254 Z" id="Rectangle-Copy-8" fill="#FFC30D" blush:i="0.8.0.16"/><path d="M113,254 C127.359403,254 139,265.640597 139,280 L139,332 L139,332 L87,332 L87,280 C87,265.640597 98.6405965,254 113,254 Z" id="Rectangle-Copy-7" fill="#7364FF" blush:i="0.8.0.17"/><path d="M202,254 C210.836556,254 218,261.163444 218,270 L218,302 L218,302 L186,302 L186,270 C186,261.163444 193.163444,254 202,254 Z" id="Rectangle-Copy-5" fill="#7364FF" blush:i="0.8.0.18"/><path d="M484,254 C492.836556,254 500,261.163444 500,270 L500,302 L500,302 L468,302 L468,270 C468,261.163444 475.163444,254 484,254 Z" id="Rectangle-Copy-4" fill="#FFC30D" blush:i="0.8.0.19"/><path d="M554,254 C568.359403,254 580,265.640597 580,280 L580,332 L580,332 L528,332 L528,280 C528,265.640597 539.640597,254 554,254 Z" id="Rectangle-Copy-3" fill="#7364FF" blush:i="0.8.0.20"/><path d="M648,254 C656.836556,254 664,261.163444 664,270 L664,302 L664,302 L632,302 L632,270 C632,261.163444 639.163444,254 648,254 Z" id="Rectangle-Copy" fill="#7364FF" blush:i="0.8.0.21"/><rect id="Rectangle" fill="#7364FF" x="72" y="33" width="100" height="15" blush:i="0.8.0.22"/><rect id="Rectangle-Copy-10" fill="#7364FF" x="520" y="33" width="100" height="15" blush:i="0.8.0.23"/><rect id="Rectangle" fill="#E8E7FF" x="246" y="55" width="186" height="278" blush:i="0.8.0.24"/><rect id="Rectangle-Copy-2" fill="#A39FFF" x="0" y="120" width="696" height="8" blush:i="0.8.0.25"/><rect id="Rectangle-Copy-16" fill="#7364FF" x="80" y="25" width="107" height="8" blush:i="0.8.0.26"/><rect id="Rectangle-Copy-17" fill="#7364FF" x="525" y="25" width="107" height="8" blush:i="0.8.0.27"/><rect id="Rectangle-Copy-14" fill="#A39FFF" x="58" y="25" width="107" height="8" blush:i="0.8.0.28"/><rect id="Rectangle-Copy-15" fill="#A39FFF" x="506" y="25" width="107" height="8" blush:i="0.8.0.29"/><rect id="Rectangle-Copy-6" fill="#A39FFF" x="0" y="206" width="696" height="8" blush:i="0.8.0.30"/><rect id="Rectangle" fill="#A39FFF" x="244" y="48" width="192" height="7" blush:i="0.8.0.31"/><rect id="Rectangle" fill="#A39FFF" x="420" y="55" width="24" height="277" blush:i="0.8.0.32"/><rect id="Rectangle" fill="#7364FF" x="436" y="48" width="8" height="284" blush:i="0.8.0.33"/><rect id="Rectangle" fill="#7364FF" x="428" y="198" width="16" height="24" blush:i="0.8.0.34"/><path d="M344,236 C363.882251,236 380,252.117749 380,272 L380,332 L380,332 L308,332 L308,272 C308,252.117749 324.117749,236 344,236 Z" id="Rectangle" fill="#7364FF" blush:i="0.8.0.35"/><rect id="Rectangle" fill="#A39FFF" x="244" y="55" width="24" height="277" blush:i="0.8.0.36"/><rect id="Rectangle" fill="#7364FF" x="260" y="55" width="8" height="277" blush:i="0.8.0.37"/><rect id="Rectangle" fill="#CECCFF" x="236" y="198" width="192" height="24" blush:i="0.8.0.38"/><rect id="Rectangle" fill="#A39FFF" x="339" y="-115" width="9" height="159" rx="4.5" blush:i="0.8.0.39"/><rect id="Rectangle" fill="#A39FFF" x="82" y="33" width="78" height="300" blush:i="0.8.0.40"/><rect id="Rectangle-Copy-11" fill="#A39FFF" x="530" y="33" width="78" height="300" blush:i="0.8.0.41"/><rect id="Rectangle-Copy-9" fill="#7364FF" x="80" y="33" width="80" height="300" blush:i="0.8.0.42"/><rect id="Rectangle-Copy-12" fill="#7364FF" x="528" y="33" width="80" height="300" blush:i="0.8.0.43"/><rect id="Rectangle-Copy" fill="#A39FFF" x="0" y="48" width="696" height="8" blush:i="0.8.0.44"/><rect id="Rectangle" fill="#E8E7FF" x="72" y="33" width="80" height="300" blush:i="0.8.0.45"/><rect id="Rectangle-Copy-13" fill="#E8E7FF" x="520" y="33" width="80" height="300" blush:i="0.8.0.46"/><path d="M113,254 C121.836556,254 129,261.163444 129,270 L129,334 L129,334 L97,334 L97,270 C97,261.163444 104.163444,254 113,254 Z" id="Rectangle-Copy-24" fill="#7364FF" blush:i="0.8.0.47"/><path d="M143.140352,-36 C159.079096,-36 172,-17.7929132 172,4.66666667 L172,25 L114.280705,25 L114.280705,4.66666667 C114.280705,-3.01484569 105.882141,-29.8716324 108.508775,-36 L143.140352,-36 Z" id="Rectangle" fill="#7364FF" blush:i="0.8.0.48"/><path d="M112,-36 C134.09139,-36 152,-18.09139 152,4 L152,25 L152,25 L72,25 L72,4 C72,-18.09139 89.90861,-36 112,-36 Z" id="Rectangle" fill="#A39FFF" blush:i="0.8.0.49"/><path d="M357.5,-75 C410.795478,-75 454,-31.7954784 454,21.5 L454,48 L454,48 L261,48 L261,21.5 C261,-31.7954784 304.204522,-75 357.5,-75 Z" id="Rectangle-Copy-18" fill="#7364FF" blush:i="0.8.0.50"/><path d="M559,254 C567.836556,254 575,261.163444 575,270 L575,334 L575,334 L543,334 L543,270 C543,261.163444 550.163444,254 559,254 Z" id="Rectangle-Copy-25" fill="#7364FF" blush:i="0.8.0.51"/><path d="M339.5,-75 C392.795478,-75 436,-31.7954784 436,21.5 L436,48 L436,48 L243,48 L243,21.5 C243,-31.7954784 286.204522,-75 339.5,-75 Z" id="Rectangle" fill="#A39FFF" blush:i="0.8.0.52"/><path d="M591.140352,-36 C607.079096,-36 620,-17.7929132 620,4.66666667 L620,25 L562.280705,25 L562.280705,4.66666667 C562.280705,-3.01484569 553.882141,-29.8716324 556.508775,-36 L591.140352,-36 Z" id="Rectangle" fill="#7364FF" blush:i="0.8.0.53"/><rect id="Rectangle-Copy-27" fill="#7364FF" x="428" y="24" width="32" height="24" blush:i="0.8.0.54"/><path d="M560,-36 C582.09139,-36 600,-18.09139 600,4 L600,25 L600,25 L520,25 L520,4 C520,-18.09139 537.90861,-36 560,-36 Z" id="Rectangle" fill="#A39FFF" blush:i="0.8.0.55"/><rect id="Rectangle-Copy-26" fill="#CECCFF" x="236" y="24" width="192" height="24" blush:i="0.8.0.56"/><path d="M559,72 C567.836556,72 575,79.163444 575,88 L575,120 L575,120 L543,120 L543,88 C543,79.163444 550.163444,72 559,72 Z" id="Rectangle-Copy-22" fill="#FFC30D" blush:i="0.8.0.57"/><path d="M113,72 C121.836556,72 129,79.163444 129,88 L129,120 L129,120 L97,120 L97,88 C97,79.163444 104.163444,72 113,72 Z" id="Rectangle-Copy-19" fill="#7364FF" blush:i="0.8.0.58"/><path d="M559,158 C567.836556,158 575,165.163444 575,174 L575,206 L575,206 L543,206 L543,174 C543,165.163444 550.163444,158 559,158 Z" id="Rectangle-Copy-21" fill="#7364FF" blush:i="0.8.0.59"/><path d="M113,158 C121.836556,158 129,165.163444 129,174 L129,206 L129,206 L97,206 L97,174 C97,165.163444 104.163444,158 113,158 Z" id="Rectangle-Copy-20" fill="#FFC30D" blush:i="0.8.0.60"/><path d="M309,141 L380,141 L380,141 L380,198 L308,198 L308,142 C308,141.447715 308.447715,141 309,141 Z" id="Rectangle-Copy-23" fill="#7364FF" blush:i="0.8.0.61"/><circle id="Oval" fill="#7364FF" cx="344" cy="90" r="17" blush:i="0.8.0.62"/></g></g><g id="Tree/Medium" transform="translate(1974.000000, 1061.000000) scale(1 1)" blush:width="96" blush:height="136" blush:component="Tree/Medium" blush:i="0.9"><g id="Tree/Medium/9" stroke="none" stroke-width="1" fill="none" fill-rule="evenodd" blush:i="0.9.0"><path d="M48,112 C74.509668,112 96,103.07209 96,72.1441441 C96,41.2161982 74.509668,0 48,0 C21.490332,0 0,41.2161982 0,72.1441441 C0,103.07209 21.490332,112 48,112 Z" id="Oval" fill="#00D745" blush:i="0.9.0.0"/><rect id="Rectangle" fill="#02A837" x="47" y="40" width="4" height="96" blush:i="0.9.0.1"/></g></g><g id="Building/Small" transform="translate(2021.000000, 1037.000000) scale(1 1)" blush:width="296" blush:height="160" blush:component="Building/Small" blush:i="0.10"><g id="Building/Small/6" stroke="none" stroke-width="1" fill="none" fill-rule="evenodd" blush:i="0.10.0"><g id="Group-2" transform="translate(8.000000, -28.000000)" blush:i="0.10.0.0"><g id="Group" blush:i="0.10.0.0.0"><polygon id="Triangle" fill="#5628D2" points="185.5 0 283 80 88 80 97.5 0" blush:i="0.10.0.0.0.0"/><polygon id="Triangle" fill="#7364FF" points="97.5 0 195 80 0 80" blush:i="0.10.0.0.0.1"/></g><rect id="Rectangle" fill="#E8E7FF" x="0" y="80" width="195" height="108" blush:i="0.10.0.0.1"/><rect id="Rectangle" fill="#CECCFF" x="195" y="80" width="88" height="108" blush:i="0.10.0.0.2"/><path d="M39,88 C51.7025492,88 62,98.2974508 62,111 L62,161 L62,161 L16,161 L16,111 C16,98.2974508 26.2974508,88 39,88 Z" id="Rectangle" fill="#FFC30D" blush:i="0.10.0.0.3"/><path d="M156,88 C168.702549,88 179,98.2974508 179,111 L179,161 L179,161 L133,161 L133,111 C133,98.2974508 143.297451,88 156,88 Z" id="Rectangle" fill="#7364FF" blush:i="0.10.0.0.4"/><path d="M239,88 C251.702549,88 262,98.2974508 262,111 L262,155 L262,155 L216,155 L216,111 C216,98.2974508 226.297451,88 239,88 Z" id="Rectangle" fill="#5628D2" blush:i="0.10.0.0.5"/><rect id="Rectangle" fill="#A39FFF" x="0" y="172" width="195" height="16" blush:i="0.10.0.0.6"/><rect id="Rectangle-Copy" fill="#7364FF" x="195" y="172" width="88" height="16" blush:i="0.10.0.0.7"/><path d="M97.5,108 C108.269553,108 117,116.730447 117,127.5 L117,188 L117,188 L78,188 L78,127.5 C78,116.730447 86.7304474,108 97.5,108 Z" id="Rectangle" fill="#7364FF" blush:i="0.10.0.0.8"/><rect id="Rectangle-Copy-5" fill="#FFF" x="12" y="157" width="53" height="7" blush:i="0.10.0.0.9"/><rect id="Rectangle-Copy-6" fill="#FFF" x="130" y="157" width="53" height="7" blush:i="0.10.0.0.10"/><rect id="Rectangle-Copy-7" fill="#A39FFF" x="213" y="157" width="53" height="7" blush:i="0.10.0.0.11"/></g></g></g><g id="Tree/Medium" transform="translate(986.000000, 1061.000000) scale(1 1)" blush:width="96" blush:height="136" blush:component="Tree/Medium" blush:i="0.11"><g id="Tree/Medium/7" stroke="none" stroke-width="1" fill="none" fill-rule="evenodd" blush:i="0.11.0"><rect id="Rectangle" fill="#02A837" x="47" y="40" width="4" height="96" blush:i="0.11.0.0"/><polygon id="Triangle" fill="#02A837" points="48 34 96 115 0 115" blush:i="0.11.0.1"/><polygon id="Triangle" fill="#02A837" points="49 13 89 80 9 80" blush:i="0.11.0.2"/><polygon id="Triangle" fill="#02A837" points="48 -2 76 45 20 45" blush:i="0.11.0.3"/></g></g><g id="Tree/Small" transform="translate(961.000000, 1117.000000) scale(1 1)" blush:width="80" blush:height="80" blush:component="Tree/Small" blush:i="0.12"><g id="Tree/Small/3" stroke="none" stroke-width="1" fill="none" fill-rule="evenodd" blush:i="0.12.0"><circle id="Oval" fill="#02A837" cx="19.5" cy="64.5" r="10.5" blush:i="0.12.0.0"/><path d="M27,80 C27,72.544742 20.9206881,67 13.4648439,67 C6.00899981,67 0,72.544742 0,80" id="Path" fill="#02A837" blush:i="0.12.0.1"/><path d="M39.1538462,55 C42.2672566,55 45.1976115,55.7986987 47.7583753,57.2060038 C49.5659667,56.3826459 51.5690004,55.925 53.6769231,55.925 C59.83465,55.925 65.0972983,59.83036 67.2099361,65.3431512 C67.8258947,65.232575 68.4601956,65.175 69.1076923,65.175 C75.1233477,65.175 80,70.1446393 80,76.275 C80,77.5819121 79.7783629,78.8360709 79.3713029,80.0005719 L22.1525441,80.001022 C21.4074917,77.9785138 21,75.7877517 21,73.5 C21,63.2827321 29.1277538,55 39.1538462,55 Z" id="Combined-Shape" fill="#00D745" blush:i="0.12.0.2"/></g></g><g id="Tree/Small" transform="translate(815.000000, 1117.000000) scale(1 1)" blush:width="80" blush:height="80" blush:component="Tree/Small" blush:i="0.13"><g id="Tree/Small/2" stroke="none" stroke-width="1" fill="none" fill-rule="evenodd" blush:i="0.13.0"><g id="Group" transform="translate(8.000000, 43.000000)" blush:i="0.13.0.0"><circle id="Oval" fill="#02A837" cx="50.5" cy="20.5" r="13.5" blush:i="0.13.0.0.0"/><path d="M32,0 C43.045695,0 52,8.954305 52,20 C52,20.6756748 51.9664941,21.3435238 51.9010532,22.0019763 L52,22 C58.627417,22 64,27.372583 64,34 C64,35.0362344 63.8686559,36.0417918 63.6217076,37.0009322 L1.60874853,37.0005801 C0.578218935,34.8860425 0,32.5105464 0,30 C0,22.252481 5.50656915,15.7910902 12.8194031,14.3161319 C15.2678387,6.0393621 22.928635,0 32,0 Z" id="Combined-Shape" fill="#00D745" blush:i="0.13.0.0.1"/></g></g></g><g id="Tree/Small" transform="translate(2000.000000, 1117.000000) scale(1 1)" blush:width="80" blush:height="80" blush:component="Tree/Small" blush:i="0.14"><g id="Tree/Small/2" stroke="none" stroke-width="1" fill="none" fill-rule="evenodd" blush:i="0.14.0"><g id="Group" transform="translate(8.000000, 43.000000)" blush:i="0.14.0.0"><circle id="Oval" fill="#02A837" cx="50.5" cy="20.5" r="13.5" blush:i="0.14.0.0.0"/><path d="M32,0 C43.045695,0 52,8.954305 52,20 C52,20.6756748 51.9664941,21.3435238 51.9010532,22.0019763 L52,22 C58.627417,22 64,27.372583 64,34 C64,35.0362344 63.8686559,36.0417918 63.6217076,37.0009322 L1.60874853,37.0005801 C0.578218935,34.8860425 0,32.5105464 0,30 C0,22.252481 5.50656915,15.7910902 12.8194031,14.3161319 C15.2678387,6.0393621 22.928635,0 32,0 Z" id="Combined-Shape" fill="#00D745" blush:i="0.14.0.0.1"/></g></g></g><g id="Tree/Small" transform="translate(202.000000, 1117.000000) scale(1 1)" blush:width="80" blush:height="80" blush:component="Tree/Small" blush:i="0.15"><g id="Tree/Small/3" stroke="none" stroke-width="1" fill="none" fill-rule="evenodd" blush:i="0.15.0"><circle id="Oval" fill="#02A837" cx="19.5" cy="64.5" r="10.5" blush:i="0.15.0.0"/><path d="M27,80 C27,72.544742 20.9206881,67 13.4648439,67 C6.00899981,67 0,72.544742 0,80" id="Path" fill="#02A837" blush:i="0.15.0.1"/><path d="M39.1538462,55 C42.2672566,55 45.1976115,55.7986987 47.7583753,57.2060038 C49.5659667,56.3826459 51.5690004,55.925 53.6769231,55.925 C59.83465,55.925 65.0972983,59.83036 67.2099361,65.3431512 C67.8258947,65.232575 68.4601956,65.175 69.1076923,65.175 C75.1233477,65.175 80,70.1446393 80,76.275 C80,77.5819121 79.7783629,78.8360709 79.3713029,80.0005719 L22.1525441,80.001022 C21.4074917,77.9785138 21,75.7877517 21,73.5 C21,63.2827321 29.1277538,55 39.1538462,55 Z" id="Combined-Shape" fill="#00D745" blush:i="0.15.0.2"/></g></g><g id="Tree/Small" transform="translate(2277.000000, 1117.000000) scale(1 1)" blush:width="80" blush:height="80" blush:component="Tree/Small" blush:i="0.16"><g id="Tree/Small/2" stroke="none" stroke-width="1" fill="none" fill-rule="evenodd" blush:i="0.16.0"><g id="Group" transform="translate(8.000000, 43.000000)" blush:i="0.16.0.0"><circle id="Oval" fill="#02A837" cx="50.5" cy="20.5" r="13.5" blush:i="0.16.0.0.0"/><path d="M32,0 C43.045695,0 52,8.954305 52,20 C52,20.6756748 51.9664941,21.3435238 51.9010532,22.0019763 L52,22 C58.627417,22 64,27.372583 64,34 C64,35.0362344 63.8686559,36.0417918 63.6217076,37.0009322 L1.60874853,37.0005801 C0.578218935,34.8860425 0,32.5105464 0,30 C0,22.252481 5.50656915,15.7910902 12.8194031,14.3161319 C15.2678387,6.0393621 22.928635,0 32,0 Z" id="Combined-Shape" fill="#00D745" blush:i="0.16.0.0.1"/></g></g></g><g id="Cars" transform="translate(438.000000, 1128.000000)" blush:i="0.17"><g id="Transport" blush:width="320" blush:height="134" blush:component="Transport" blush:i="0.17.0" transform="scale(1 1)"><g id="Transport/Sedan" stroke="none" stroke-width="1" fill="none" fill-rule="evenodd" blush:i="0.17.0.0"><g id="Group" transform="translate(37.000000, 54.000000)" blush:i="0.17.0.0.0"><path d="M0,28 L181,28 L230.630362,32.6564276 C237.755695,33.3249418 243.416362,38.9339796 244.150132,46.052889 L245.545434,59.5898795 C245.771937,61.7873761 244.174132,63.7524163 241.976635,63.9789196 C241.840379,63.9929639 241.703492,64 241.566515,64 L4.18282744,64 C1.98260471,64 0.195458644,62.2230317 0.182892676,60.0228449 L0,28 L0,28 Z" id="Rectangle" fill="#7364FF" blush:i="0.17.0.0.0.0"/><path d="M9.05087575,0 L157.088115,0 C157.687135,-4.32888575e-15 158.254617,0.268498049 158.634499,0.731655718 L181,28 L181,28 L0,28 L5.13385422,3.1894802 C5.51818937,1.33209308 7.15414161,1.23660283e-15 9.05087575,0 Z" id="Rectangle" fill="#A39FFF" blush:i="0.17.0.0.0.1"/><path d="M155.702026,4 C156.27278,4 156.807384,4.14810101 157.234954,4.40218079 C157.520001,4.57156731 164.10835,12.437507 177,28 L177,28 L129,28 L129,4 Z M124,28 L86.0553508,28 C85.7578425,28 85.461989,27.9557457 85.1775027,27.86869 C83.5931689,27.3838679 82.7018386,25.7064856 83.1866608,24.1221518 L83.1866608,24.1221518 L88.9035167,5.4402342 C89.0461355,5.01631912 89.3666722,4.65626057 89.7942426,4.40218079 C90.2218131,4.14810101 90.7564172,4 91.327171,4 L91.327171,4 L124,4 L124,28 Z" id="Combined-Shape" fill="#5628D2" blush:i="0.17.0.0.0.2"/><path d="M8.01103666,4 C7.53745148,4 7.09386157,4.14810101 6.73908334,4.40218079 C6.3843051,4.65626057 6.11833853,5.01631912 6,5.4402342 L10.0991462,25.5978289 C10.3833955,26.9956282 11.6125679,28 13.0389762,28 L82.6487843,28 C83.2010691,28 83.6487843,27.5522847 83.6487843,27 C83.6487843,26.9009653 83.6340729,26.8024799 83.6051318,26.7077682 L77.1063967,5.4402342 L77.1063967,5.4402342 C76.9880582,5.01631912 76.7220916,4.65626057 76.3673133,4.40218079 C76.0125351,4.14810101 75.5689452,4 75.09536,4 L8.01103666,4 Z" id="Combined-Shape-Copy" fill="#5628D2" transform="translate(44.824392, 16.000000) scale(1, -1) translate(-44.824392, -16.000000)" blush:i="0.17.0.0.0.3"/><circle id="Oval" fill="#370EA3" cx="55" cy="64" r="16" blush:i="0.17.0.0.0.4"/><circle id="Oval" fill="#E8E7FF" cx="55" cy="64" r="8" blush:i="0.17.0.0.0.5"/><circle id="Oval" fill="#370EA3" cx="198" cy="64" r="16" blush:i="0.17.0.0.0.6"/><circle id="Oval" fill="#E8E7FF" cx="198" cy="64" r="8" blush:i="0.17.0.0.0.7"/></g></g></g><g id="Transport" transform="translate(242.000000, 0.000000) scale(1 1)" blush:width="320" blush:height="134" blush:component="Transport" blush:i="0.17.1"><g id="Transport/Mini" stroke="none" stroke-width="1" fill="none" fill-rule="evenodd" blush:i="0.17.1.0"><g id="Group" transform="translate(98.000000, 57.000000)" blush:i="0.17.1.0.0"><path d="M9,31 L116,31 C120.418278,31 124,34.581722 124,39 L124,58 C124,60.209139 122.209139,62 120,62 L5.32645481,62 C3.11731581,62 1.32645481,60.209139 1.32645481,58 C1.32645481,57.6226322 1.37985591,57.247163 1.4850699,56.8847592 L9,31 L9,31 Z" id="Rectangle" fill="#CECCFF" blush:i="0.17.1.0.0.0"/><path d="M23.0703445,0 L77.120668,0 C80.6938412,1.11997558e-15 83.8337596,2.36954991 84.8138446,5.80568138 L92,31 L92,31 L9,31 L15.3146567,6.03803484 C16.2128956,2.48727855 19.4077357,6.72810323e-16 23.0703445,0 Z" id="Rectangle" fill="#A39FFF" blush:i="0.17.1.0.0.1"/><path d="M77.8024203,6 C78.2584655,6 78.6856264,6.15427188 79.0272648,6.41893832 C79.3689033,6.68360476 79.6250193,7.05866575 79.738975,7.50024396 L79.738975,7.50024396 L85.2550411,31 L50,31 L50,6 Z M46,31 L18.5306831,31 C18.2998727,31 18.0698333,30.9733636 17.8451301,30.9206193 C16.2321166,30.5419988 15.2314434,28.9274605 15.6100638,27.314447 L15.6100638,27.314447 L20.261025,7.50024396 C20.3749807,7.05866575 20.6310967,6.68360476 20.9727352,6.41893832 C21.3143736,6.15427188 21.7415345,6 22.1975797,6 L22.1975797,6 L46,6 L46,31 Z" id="Combined-Shape" fill="#5628D2" blush:i="0.17.1.0.0.2"/><circle id="Oval" fill="#5628D2" cx="24" cy="61" r="16" blush:i="0.17.1.0.0.3"/><circle id="Oval" fill="#E8E7FF" cx="24" cy="61" r="8" blush:i="0.17.1.0.0.4"/><circle id="Oval" fill="#5628D2" cx="102" cy="61" r="16" blush:i="0.17.1.0.0.5"/><circle id="Oval" fill="#E8E7FF" cx="102" cy="61" r="8" blush:i="0.17.1.0.0.6"/></g></g></g><g id="Transport" transform="translate(1424.000000, 0.000000) scale(1 1)" blush:width="320" blush:height="134" blush:component="Transport" blush:i="0.17.2"><g id="Transport/SUV" stroke="none" stroke-width="1" fill="none" fill-rule="evenodd" blush:i="0.17.2.0"><g id="Group" transform="translate(56.000000, 38.000000)" blush:i="0.17.2.0.0"><path d="M17,32 L200.048387,32 C204.466665,32 208.048387,35.581722 208.048387,40 L208.048387,68 C208.048387,70.209139 206.257526,72 204.048387,72 L21.0435513,72 C18.8363017,72 17.0462243,70.2120867 17.0435542,68.0048387 L17,32 L17,32 Z" id="Rectangle" fill="#A39FFF" blush:i="0.17.2.0.0.0"/><path d="M35.4176131,0 L135.170134,0 C138.295611,2.97857303e-15 141.134881,1.82016185 142.439667,4.66025581 L155,32 L155,32 L17,32 L28.0090072,4.98129847 C29.2363113,1.96920475 32.1650781,2.37383782e-15 35.4176131,0 Z" id="Rectangle" fill="#CECCFF" blush:i="0.17.2.0.0.1"/><path d="M136.80242,7 C137.258466,7 137.685626,7.15427188 138.027265,7.41893832 C138.368903,7.68360476 138.625019,8.05866575 138.738975,8.50024396 L138.738975,8.50024396 L150.255041,32 L105,32 L105,7 Z M101,32 L31.0230422,32 C30.6744946,32 30.3286132,31.9392608 30.0009195,31.820508 C28.443196,31.2560053 27.6380314,29.5356009 28.2025342,27.9778774 L28.2025342,27.9778774 L35.261025,8.50024396 C35.3749807,8.05866575 35.6310967,7.68360476 35.9727352,7.41893832 C36.3143736,7.15427188 36.7415345,7 37.1975797,7 L37.1975797,7 L101,7 L101,32 Z" id="Combined-Shape" fill="#5628D2" blush:i="0.17.2.0.0.2"/><circle id="Oval" fill="#370EA3" cx="45.5" cy="77.5" r="18.5" blush:i="0.17.2.0.0.3"/><circle id="Oval" fill="#E8E7FF" cx="45.5" cy="77.5" r="9.5" blush:i="0.17.2.0.0.4"/><circle id="Oval" fill="#370EA3" cx="174.5" cy="77.5" r="18.5" blush:i="0.17.2.0.0.5"/><circle id="Oval" fill="#E8E7FF" cx="174.5" cy="77.5" r="9.5" blush:i="0.17.2.0.0.6"/><rect id="Rectangle" fill="#5628D2" x="0" y="32" width="17" height="37" rx="3" blush:i="0.17.2.0.0.7"/></g></g></g></g></g></svg>