<svg xmlns="http://www.w3.org/2000/svg" viewBox="0 0 915.52 295.96"><defs><style>.cls-1,.cls-2{fill:#b5c3c2;}.cls-2,.cls-5{opacity:0.29;}.cls-3{fill:#95a9a7;}.cls-4,.cls-5{fill:#658280;}</style></defs><g id="Layer_2" data-name="Layer 2"><g id="Object"><rect class="cls-1" x="250.09" y="96.5" width="40.4" height="160.8"/><rect class="cls-1" x="256.69" y="84.97" width="27.2" height="67.58"/><rect class="cls-1" x="262.74" y="77.66" width="15.09" height="37.48"/><polygon class="cls-1" points="275.43 96.92 265.14 96.92 265.14 71.38 268.85 71.38 272.53 71.38 275.43 71.38 275.43 96.92"/><polygon class="cls-1" points="269.61 85.8 268.49 85.8 268.49 60.25 268.89 60.25 269.29 60.25 269.61 60.25 269.61 85.8"/><polygon class="cls-1" points="272.08 76.97 270.96 76.97 270.96 51.42 271.36 51.42 271.76 51.42 272.08 51.42 272.08 76.97"/><rect class="cls-1" x="249.01" y="96.09" width="42.55" height="1.71"/><rect class="cls-1" x="255.69" y="84.15" width="29.18" height="1.65"/><rect class="cls-1" x="261.64" y="76.97" width="16.82" height="1.26"/><rect class="cls-2" x="259.19" y="87.71" width="1.26" height="7.08"/><rect class="cls-2" x="262.69" y="87.71" width="1.26" height="7.08"/><rect class="cls-2" x="266.18" y="87.71" width="1.26" height="7.08"/><rect class="cls-2" x="269.68" y="87.71" width="1.26" height="7.08"/><rect class="cls-2" x="273.18" y="87.71" width="1.26" height="7.08"/><rect class="cls-2" x="276.68" y="87.71" width="1.26" height="7.08"/><rect class="cls-2" x="280.18" y="87.71" width="1.26" height="7.08"/><rect class="cls-1" x="253.63" y="102.91" width="3.06" height="8.4"/><rect class="cls-2" x="259.68" y="102.91" width="3.06" height="8.4"/><rect class="cls-1" x="265.73" y="102.91" width="3.06" height="8.4"/><rect class="cls-1" x="271.78" y="102.91" width="3.06" height="8.4"/><rect class="cls-1" x="277.83" y="102.91" width="3.05" height="8.4"/><rect class="cls-1" x="283.88" y="102.91" width="3.05" height="8.4"/><rect class="cls-1" x="253.63" y="116.01" width="3.06" height="8.4"/><rect class="cls-1" x="259.68" y="116.01" width="3.06" height="8.4"/><rect class="cls-1" x="265.73" y="116.01" width="3.06" height="8.4"/><rect class="cls-2" x="271.78" y="116.01" width="3.06" height="8.4"/><rect class="cls-1" x="277.83" y="116.01" width="3.05" height="8.4"/><rect class="cls-1" x="283.88" y="116.01" width="3.05" height="8.4"/><rect class="cls-1" x="253.63" y="129.1" width="3.06" height="8.4"/><rect class="cls-1" x="259.68" y="129.1" width="3.06" height="8.4"/><rect class="cls-1" x="265.73" y="129.1" width="3.06" height="8.4"/><rect class="cls-1" x="271.78" y="129.1" width="3.06" height="8.4"/><rect class="cls-2" x="277.83" y="129.1" width="3.05" height="8.4"/><rect class="cls-2" x="283.88" y="129.1" width="3.05" height="8.4"/><rect class="cls-2" x="253.63" y="142.19" width="3.06" height="8.4"/><rect class="cls-1" x="259.68" y="142.19" width="3.06" height="8.4"/><rect class="cls-1" x="265.73" y="142.19" width="3.06" height="8.4"/><rect class="cls-1" x="271.78" y="142.19" width="3.06" height="8.4"/><rect class="cls-1" x="277.83" y="142.19" width="3.05" height="8.4"/><rect class="cls-1" x="283.88" y="142.19" width="3.05" height="8.4"/><rect class="cls-1" x="253.63" y="155.29" width="3.06" height="8.4"/><rect class="cls-2" x="259.68" y="155.29" width="3.06" height="8.4"/><rect class="cls-1" x="265.73" y="155.29" width="3.06" height="8.4"/><rect class="cls-2" x="271.78" y="155.29" width="3.06" height="8.4"/><rect class="cls-1" x="277.83" y="155.29" width="3.05" height="8.4"/><rect class="cls-1" x="283.88" y="155.29" width="3.05" height="8.4"/><rect class="cls-1" x="253.63" y="168.38" width="3.06" height="8.4"/><rect class="cls-1" x="259.68" y="168.38" width="3.06" height="8.4"/><rect class="cls-1" x="265.73" y="168.38" width="3.06" height="8.4"/><rect class="cls-1" x="271.78" y="168.38" width="3.06" height="8.4"/><rect class="cls-1" x="277.83" y="168.38" width="3.05" height="8.4"/><rect class="cls-2" x="283.88" y="168.38" width="3.05" height="8.4"/><rect class="cls-1" x="253.63" y="181.48" width="3.06" height="8.4"/><rect class="cls-2" x="259.68" y="181.48" width="3.06" height="8.4"/><rect class="cls-2" x="265.73" y="181.48" width="3.06" height="8.4"/><rect class="cls-1" x="271.78" y="181.48" width="3.06" height="8.4"/><rect class="cls-1" x="277.83" y="181.48" width="3.05" height="8.4"/><rect class="cls-1" x="283.88" y="181.48" width="3.05" height="8.4"/><rect class="cls-1" x="253.63" y="194.57" width="3.06" height="8.4"/><rect class="cls-1" x="259.68" y="194.57" width="3.06" height="8.4"/><rect class="cls-1" x="265.73" y="194.57" width="3.06" height="8.4"/><rect class="cls-1" x="271.78" y="194.57" width="3.06" height="8.4"/><rect class="cls-2" x="277.83" y="194.57" width="3.05" height="8.4"/><rect class="cls-1" x="283.88" y="194.57" width="3.05" height="8.4"/><rect class="cls-1" x="253.63" y="207.67" width="3.06" height="8.4"/><rect class="cls-2" x="259.68" y="207.67" width="3.06" height="8.4"/><rect class="cls-1" x="265.73" y="207.67" width="3.06" height="8.4"/><rect class="cls-1" x="271.78" y="207.67" width="3.06" height="8.4"/><rect class="cls-1" x="277.83" y="207.67" width="3.05" height="8.4"/><rect class="cls-1" x="283.88" y="207.67" width="3.05" height="8.4"/><rect class="cls-1" x="253.63" y="220.76" width="3.06" height="8.4"/><rect class="cls-1" x="259.68" y="220.76" width="3.06" height="8.4"/><rect class="cls-1" x="265.73" y="220.76" width="3.06" height="8.4"/><rect class="cls-2" x="271.78" y="220.76" width="3.06" height="8.4"/><rect class="cls-1" x="277.83" y="220.76" width="3.05" height="8.4"/><rect class="cls-2" x="283.88" y="220.76" width="3.05" height="8.4"/><rect class="cls-2" x="253.63" y="233.86" width="3.06" height="8.4"/><rect class="cls-1" x="259.68" y="233.86" width="3.06" height="8.4"/><rect class="cls-2" x="265.73" y="233.86" width="3.06" height="8.4"/><rect class="cls-1" x="271.78" y="233.86" width="3.06" height="8.4"/><rect class="cls-1" x="277.83" y="233.86" width="3.05" height="8.4"/><rect class="cls-1" x="283.88" y="233.86" width="3.05" height="8.4"/><rect class="cls-1" x="132.76" y="102.62" width="64.94" height="135.46"/><rect class="cls-1" x="130.91" y="100.29" width="68.63" height="3.83"/><rect class="cls-1" x="134.94" y="95.39" width="60.58" height="18.2"/><rect class="cls-1" x="139.58" y="87.94" width="23.99" height="19.88"/><polygon class="cls-1" points="153.46 93.54 139.58 93.54 139.58 83.08 149.53 83.08 153.46 93.54"/><rect class="cls-1" x="145.17" y="74.39" width="1.35" height="23.31"/><path class="cls-1" d="M147.05,73.18A1.21,1.21,0,1,1,145.84,72,1.21,1.21,0,0,1,147.05,73.18Z"/><polygon class="cls-1" points="735.49 248.39 664.4 248.39 655.53 49.22 735.49 65.82 735.49 248.39"/><polygon class="cls-1" points="425.34 134.65 425.34 68.06 414.19 68.06 414.19 50.23 410.21 50.23 410.21 24.07 388.26 24.07 388.26 4.84 386.31 4.84 386.31 24.07 382.01 24.07 382.01 0 380.06 0 380.06 24.07 366.19 24.07 366.19 68.06 359.02 68.06 359.02 134.65 352.88 134.65 352.88 255.93 429.66 255.93 429.66 134.65 425.34 134.65"/><rect class="cls-1" x="41.99" y="245.92" width="849.37" height="20.2"/><polygon class="cls-3" points="541.96 261.17 504.35 261.17 519 185.86 541.96 185.86 541.96 261.17"/><rect class="cls-3" x="11.52" y="264.11" width="891.8" height="31.85"/><polygon class="cls-3" points="511.14 121.8 511.14 88.43 499.06 88.43 499.06 75.72 492.6 75.72 492.6 65.05 490.33 65.05 490.33 46.75 489.75 46.75 489.75 65.05 487.48 65.05 487.48 75.72 481.02 75.72 481.02 88.43 469.03 88.43 469.03 121.8 466.54 121.8 466.54 182.4 447.96 182.4 447.96 251.47 466.54 251.47 485.12 251.47 513.54 251.47 513.54 121.8 511.14 121.8"/><polygon class="cls-3" points="580.54 160.14 522.09 160.14 522.09 161.2 524.73 161.2 524.73 260.05 577.9 260.05 577.9 161.2 580.54 161.2 580.54 160.14"/><rect class="cls-3" x="262.17" y="184.76" width="51.83" height="82.34"/><rect class="cls-3" x="165.23" y="226.95" width="89.13" height="40.15"/><rect class="cls-3" x="213" y="137.24" width="19.57" height="98.6"/><rect class="cls-3" x="217.32" y="110.94" width="1.02" height="53.62"/><rect class="cls-3" x="220.63" y="115" width="1.02" height="53.62"/><rect class="cls-3" x="214.51" y="131.14" width="11.96" height="13.21"/><rect class="cls-3" x="250.87" y="199.5" width="34.05" height="67.6"/><rect class="cls-3" x="322.39" y="127.97" width="63.92" height="139.13"/><rect class="cls-3" x="328.67" y="123.18" width="51.36" height="23.17"/><rect class="cls-3" x="317.44" y="130.88" width="73.83" height="1.63"/><rect class="cls-3" x="310.81" y="196.83" width="30.12" height="70.26"/><rect class="cls-3" x="95.09" y="194.16" width="34.56" height="72.93"/><rect class="cls-3" x="106.27" y="174.34" width="68.87" height="92.75"/><rect class="cls-3" x="102.25" y="170.78" width="74.66" height="3.56"/><rect class="cls-3" x="109.32" y="161.13" width="30.26" height="18.81"/><rect class="cls-3" x="149.47" y="161.13" width="5.08" height="11.44"/><rect class="cls-3" x="159.64" y="161.13" width="5.59" height="11.44"/><rect class="cls-3" x="76.28" y="238.89" width="36.09" height="28.21"/><rect class="cls-3" x="62.65" y="226.95" width="17.09" height="40.15"/><rect class="cls-3" x="41.99" y="252.99" width="29.2" height="14.1"/><rect class="cls-3" x="380.03" y="235.84" width="359.85" height="31.26"/><path class="cls-3" d="M711.15,149.32a4.32,4.32,0,0,0-4.31,4l-5.06-.17c0-.49,0-1,0-1.49a53.18,53.18,0,0,0-3.18-18.19l4.24-1.56a4.31,4.31,0,1,0-.36-1.72,4.43,4.43,0,0,0,.19,1.27L698.46,133a53.12,53.12,0,0,0-10.9-17.62l3.31-3.1a4.3,4.3,0,1,0-.33-.35l-3.31,3.1c-.34-.36-.69-.72-1-1.07A53.18,53.18,0,0,0,669,102.4L670.81,98a4.32,4.32,0,1,0-.45-.17l-1.82,4.42a53.22,53.22,0,0,0-18.06-3.84l.2-6.06h.14a4.3,4.3,0,1,0-.62,0l-.2,6.09c-.49,0-1,0-1.49,0A53.41,53.41,0,0,0,631,101.26l-1.75-5a4.22,4.22,0,1,0-.45.16l1.74,5a53.08,53.08,0,0,0-18.31,11.15l-3.16-3.37a4.32,4.32,0,0,0-3.18-7.25,4.33,4.33,0,1,0,2.84,7.59l3.15,3.36-1.07,1a53.37,53.37,0,0,0-10.62,15.12l-4-1.86a4.15,4.15,0,0,0,.23-1.37,4.31,4.31,0,1,0-.4,1.82l4,1.84a53.09,53.09,0,0,0-4.75,20.16l-5.15-.17a4.3,4.3,0,1,0,0,.48l5.15.17c0,.5,0,1,0,1.49a53.51,53.51,0,0,0,3.17,18.2l-4.23,1.55a4.33,4.33,0,1,0,.35,1.72,4.43,4.43,0,0,0-.18-1.27l4.23-1.55a53,53,0,0,0,10.9,17.61l-3.32,3.1a4.3,4.3,0,1,0,.33.35l3.31-3.1c.35.36.69.72,1,1.07A53.55,53.55,0,0,0,622,197.86l-26.07,48.06h-4.68v1.38h-2.3V250H708.08V247.3h-2.29v-1.38h-4.68L675,197.86a53.51,53.51,0,0,0,9.73-7.19l4.23,4.51a4.25,4.25,0,1,0,.38-.3l-4.26-4.54,1.07-1a53.4,53.4,0,0,0,10.63-15.12l4.7,2.18a4.51,4.51,0,0,0-.13,1,4.33,4.33,0,1,0,.28-1.52L697,173.75a53.08,53.08,0,0,0,4.74-20.16l5.07.17a4.32,4.32,0,1,0,4.32-4.44Zm-10.79,2.3c0,.48,0,1,0,1.45l-14.92-.49c0-.32,0-.64,0-1a36.68,36.68,0,0,0-2.19-12.53l14-5.17A51.86,51.86,0,0,1,700.36,151.62Zm-15.66.94-33.28-1.09a2.6,2.6,0,0,0-.11-.62l31.25-11.51a36,36,0,0,1,2.15,12.28C684.71,151.93,684.7,152.25,684.7,152.56Zm-72.37-1.87,33.28,1.08a2.76,2.76,0,0,0,.1.63l-31.25,11.5a35.94,35.94,0,0,1-2.14-12.28C612.32,151.31,612.32,151,612.33,150.69Zm38.46-.87,24.28-22.76a36.3,36.3,0,0,1,7.33,11.83l-31.25,11.5A3,3,0,0,0,650.79,149.82Zm-.33-.36a3.27,3.27,0,0,0-.62-.43l12.64-30.8a36.34,36.34,0,0,1,12.27,8.48Zm-1.07-.61a2.48,2.48,0,0,0-.54-.12l1.08-33.28a36.2,36.2,0,0,1,12.11,2.6Zm-1-.13a2.8,2.8,0,0,0-.59.09L636.71,117.4a36,36,0,0,1,11.8-2l.94,0Zm-1,.25a2.68,2.68,0,0,0-.61.37L624,125.06a36.49,36.49,0,0,1,12.3-7.5Zm-1,.7a2.77,2.77,0,0,0-.38.52l-30.23-14a36.42,36.42,0,0,1,7.85-10.84Zm-.58,1a3,3,0,0,0-.16.67l-33.27-1.09a35.86,35.86,0,0,1,3.2-13.53Zm.1,2.23a2.53,2.53,0,0,0,.28.47l-.2.37-24,22.49a36.27,36.27,0,0,1-7.32-11.83Zm-.65,2.18-15.07,27.78a36.3,36.3,0,0,1-7.88-6.28Zm1.64-1a3.37,3.37,0,0,0,.32.19L634.54,185a35.26,35.26,0,0,1-3.55-1.73Zm.76.37a2.57,2.57,0,0,0,.55.12l-1.08,33.28a35.86,35.86,0,0,1-12.11-2.6Zm.88,33.43h-.93l1.08-33.29a2.9,2.9,0,0,0,.59-.09l11.07,31.41A36.09,36.09,0,0,1,648.51,187.82Zm1.19-33.55a2.94,2.94,0,0,0,.46-.25L666,183.28a34.76,34.76,0,0,1-5.26,2.4Zm2.67,1.82,20.7,22.09a36,36,0,0,1-6.2,4.63Zm-.9-1.67-.6-1.1a1.78,1.78,0,0,0,.17-.27l30.23,14a36.56,36.56,0,0,1-7.84,10.85Zm-.23-1.8a2.89,2.89,0,0,0,.16-.66L684.68,153a35.82,35.82,0,0,1-3.21,13.53Zm-17,33.06-5.68,13.83a50.4,50.4,0,0,1-5.08-2.44l7.14-13.15A35.58,35.58,0,0,0,634.27,185.68Zm.44.18a36.9,36.9,0,0,0,12.36,2.65l-.48,14.92A51.64,51.64,0,0,1,629,199.69Zm12.84,2.67h1a36.71,36.71,0,0,0,12-2l5,14.1a51.91,51.91,0,0,1-17,2.84c-.48,0-1,0-1.44,0ZM661,186.36a36.65,36.65,0,0,0,5.37-2.44l7.13,13.15a50.85,50.85,0,0,1-7.53,3.39Zm36.1-52.89-14,5.17a36.85,36.85,0,0,0-7.47-12.07l10.91-10.22A51.71,51.71,0,0,1,697.11,133.47ZM685.17,115c.34.34.68.69,1,1l-10.91,10.22a37,37,0,0,0-12.51-8.66l5.68-13.83A51.76,51.76,0,0,1,685.17,115ZM668,103.55l-5.68,13.83A36.79,36.79,0,0,0,650,114.73l.49-14.92A51.59,51.59,0,0,1,668,103.55Zm-19.48-3.77c.49,0,1,0,1.45,0l-.49,14.92-1,0a36.92,36.92,0,0,0-12,2l-5-14.1A51.9,51.9,0,0,1,648.51,99.78Zm-17.47,3,5,14.1a37.12,37.12,0,0,0-12.55,7.65l-10.22-10.9A51.62,51.62,0,0,1,631,102.78ZM611.85,115l1-1,10.22,10.91a37.15,37.15,0,0,0-8,11.07l-13.58-6.27A52,52,0,0,1,611.85,115ZM601.32,130.1l13.58,6.27a36.68,36.68,0,0,0-3.27,13.81l-14.93-.48A51.52,51.52,0,0,1,601.32,130.1Zm-4.65,21.52c0-.48,0-1,0-1.44l14.92.48c0,.32,0,.64,0,1a36.63,36.63,0,0,0,2.19,12.53l-14,5.17A52.09,52.09,0,0,1,596.67,151.62Zm3.25,18.15,14-5.17a37,37,0,0,0,7.47,12.07l-10.9,10.22A51.54,51.54,0,0,1,599.92,169.77Zm11.93,18.51c-.34-.34-.67-.69-1-1L621.75,177a37.35,37.35,0,0,0,8.06,6.41l-7.13,13.15A52,52,0,0,1,611.85,188.28ZM700,245.92H597l25.82-47.59a51,51,0,0,0,5.21,2.52l-1.82,4.43a4.42,4.42,0,0,0-1.31-.2,4.31,4.31,0,1,0,1.76.37l1.81-4.42a53.32,53.32,0,0,0,18.06,3.84l-.15,4.54a4.28,4.28,0,1,0,.48,0l.15-4.54c.5,0,1,0,1.49,0A53.47,53.47,0,0,0,666,202l1.55,4.41a4.32,4.32,0,1,0,1.83-.41,4.21,4.21,0,0,0-1.38.23l-1.55-4.39a52.68,52.68,0,0,0,7.74-3.49Zm-25.67-49.33-7.14-13.15a37.37,37.37,0,0,0,6.36-4.73l10.22,10.91A52.4,52.4,0,0,1,674.35,196.59Zm10.82-8.31-1,1-10.22-10.91a36.82,36.82,0,0,0,8-11.07l13.59,6.27A52,52,0,0,1,685.17,188.28Zm10.54-15.14-13.58-6.27a36.63,36.63,0,0,0,3.27-13.81l14.92.49A51.69,51.69,0,0,1,695.71,173.14Z"/><rect class="cls-3" x="721.59" y="185.68" width="55.57" height="81.42"/><rect class="cls-3" x="769.02" y="217.33" width="55.57" height="49.3"/><rect class="cls-3" x="553.53" y="210.09" width="31.17" height="41.38"/><rect class="cls-3" x="749.37" y="108.25" width="39.3" height="158.85"/><polygon class="cls-3" points="853.39 267.1 801.55 267.1 801.55 174.34 840.86 174.34 853.39 267.1"/><rect class="cls-3" x="830.69" y="245.92" width="45.4" height="21.17"/><rect class="cls-3" x="778.51" y="75.06" width="1.36" height="43.17"/><rect class="cls-3" x="783.08" y="84.33" width="1.36" height="43.17"/><rect class="cls-3" x="774.36" y="90.29" width="1.36" height="43.17"/><rect class="cls-3" x="803.58" y="166.85" width="18.55" height="14.61"/><rect class="cls-3" x="805.62" y="161.64" width="14.49" height="8.21"/><rect class="cls-3" x="829.5" y="171.13" width="3.56" height="5.9"/><rect class="cls-3" x="834.32" y="165.74" width="5.08" height="11.28"/><rect class="cls-4" x="553.37" y="144.08" width="47.12" height="151.88"/><rect class="cls-4" x="549.85" y="144.98" width="54.16" height="1.54"/><rect class="cls-4" x="551.31" y="166.32" width="51.23" height="1.53"/><rect class="cls-4" x="551.31" y="186.98" width="51.23" height="1.53"/><rect class="cls-4" x="551.31" y="207.64" width="51.23" height="1.53"/><rect class="cls-4" x="551.31" y="228.3" width="51.23" height="1.53"/><rect class="cls-4" x="551.31" y="248.96" width="51.23" height="1.53"/><rect class="cls-4" x="551.31" y="269.62" width="51.23" height="1.53"/><rect class="cls-4" x="548.06" y="140.79" width="57.74" height="4.2"/><rect class="cls-5" x="557.61" y="151.51" width="4.9" height="12.13"/><rect class="cls-4" x="568.56" y="151.51" width="4.9" height="12.13"/><rect class="cls-4" x="579.51" y="151.51" width="4.9" height="12.13"/><rect class="cls-4" x="590.46" y="151.51" width="4.9" height="12.13"/><rect class="cls-4" x="557.61" y="171.35" width="4.9" height="12.13"/><rect class="cls-5" x="568.56" y="171.35" width="4.9" height="12.13"/><rect class="cls-4" x="579.51" y="171.35" width="4.9" height="12.13"/><rect class="cls-4" x="590.46" y="171.35" width="4.9" height="12.13"/><rect class="cls-4" x="557.61" y="192.01" width="4.9" height="12.13"/><rect class="cls-4" x="568.56" y="192.01" width="4.9" height="12.13"/><rect class="cls-4" x="579.51" y="192.01" width="4.9" height="12.13"/><rect class="cls-5" x="590.46" y="192.01" width="4.9" height="12.13"/><rect class="cls-4" x="557.61" y="212.67" width="4.9" height="12.13"/><rect class="cls-5" x="568.56" y="212.67" width="4.9" height="12.13"/><rect class="cls-5" x="579.51" y="212.67" width="4.9" height="12.13"/><rect class="cls-4" x="590.46" y="212.67" width="4.9" height="12.13"/><rect class="cls-5" x="557.61" y="233.33" width="4.9" height="12.13"/><rect class="cls-4" x="568.56" y="233.33" width="4.9" height="12.13"/><rect class="cls-4" x="579.51" y="233.33" width="4.9" height="12.13"/><rect class="cls-4" x="590.46" y="233.33" width="4.9" height="12.13"/><rect class="cls-4" x="557.61" y="253.99" width="4.9" height="12.13"/><rect class="cls-4" x="568.56" y="253.99" width="4.9" height="12.13"/><rect class="cls-5" x="579.51" y="253.99" width="4.9" height="12.13"/><rect class="cls-4" x="590.46" y="253.99" width="4.9" height="12.13"/><rect class="cls-4" x="557.61" y="274.65" width="4.9" height="12.13"/><rect class="cls-5" x="568.56" y="274.65" width="4.9" height="12.13"/><rect class="cls-4" x="579.51" y="274.65" width="4.9" height="12.13"/><rect class="cls-5" x="590.46" y="274.65" width="4.9" height="12.13"/><rect class="cls-4" x="556.34" y="135" width="16.03" height="7.89"/><rect class="cls-4" x="555.26" y="134.77" width="18.2" height="1.35"/><polygon class="cls-4" points="485.83 295.96 423.07 295.96 423.07 151.66 485.83 136.3 485.83 295.96"/><rect class="cls-4" x="420.31" y="149.12" width="5.51" height="146.85"/><rect class="cls-4" x="436" y="144.98" width="5.52" height="150.98"/><rect class="cls-4" x="451.69" y="140.68" width="5.51" height="155.28"/><rect class="cls-4" x="467.39" y="137.18" width="5.51" height="158.78"/><rect class="cls-4" x="483.08" y="133.45" width="5.51" height="162.51"/><rect class="cls-5" x="427.25" y="161.44" width="7.32" height="11.15"/><rect class="cls-5" x="442.95" y="161.44" width="7.32" height="11.15"/><rect class="cls-4" x="458.64" y="161.44" width="7.32" height="11.15"/><rect class="cls-5" x="474.33" y="161.44" width="7.32" height="11.15"/><rect class="cls-4" x="427.25" y="180.86" width="7.32" height="11.15"/><rect class="cls-4" x="442.95" y="180.86" width="7.32" height="11.15"/><rect class="cls-5" x="458.64" y="180.86" width="7.32" height="11.15"/><rect class="cls-5" x="474.33" y="180.86" width="7.32" height="11.15"/><rect class="cls-5" x="427.25" y="200.28" width="7.32" height="11.15"/><rect class="cls-5" x="442.95" y="200.28" width="7.32" height="11.15"/><rect class="cls-5" x="458.64" y="200.28" width="7.32" height="11.15"/><rect class="cls-4" x="474.33" y="200.28" width="7.32" height="11.15"/><rect class="cls-5" x="427.25" y="219.69" width="7.32" height="11.15"/><rect class="cls-4" x="442.95" y="219.69" width="7.32" height="11.15"/><rect class="cls-5" x="458.64" y="219.69" width="7.32" height="11.15"/><rect class="cls-5" x="474.33" y="219.69" width="7.32" height="11.15"/><rect class="cls-5" x="427.25" y="239.11" width="7.32" height="11.15"/><rect class="cls-5" x="442.95" y="239.11" width="7.32" height="11.15"/><rect class="cls-4" x="458.64" y="239.11" width="7.32" height="11.15"/><rect class="cls-5" x="474.33" y="239.11" width="7.32" height="11.15"/><rect class="cls-4" x="427.25" y="258.53" width="7.32" height="11.15"/><rect class="cls-4" x="442.95" y="258.53" width="7.32" height="11.15"/><rect class="cls-5" x="458.64" y="258.53" width="7.32" height="11.15"/><rect class="cls-5" x="474.33" y="258.53" width="7.32" height="11.15"/><rect class="cls-5" x="427.25" y="277.95" width="7.32" height="11.15"/><rect class="cls-4" x="442.95" y="277.95" width="7.32" height="11.15"/><rect class="cls-5" x="458.64" y="277.95" width="7.32" height="11.15"/><rect class="cls-4" x="474.33" y="277.95" width="7.32" height="11.15"/><polygon class="cls-4" points="244.02 158.57 244.02 160.07 242.52 160.07 242.52 164.34 268.79 164.34 268.79 295.96 225.69 295.96 225.69 171.2 225.69 164.34 225.69 160.07 224.13 160.07 224.13 158.57 244.02 158.57"/><rect class="cls-4" x="317.44" y="218.36" width="36.92" height="77.61"/><rect class="cls-4" x="156.54" y="200.57" width="30.01" height="95.4"/><rect class="cls-4" x="180.6" y="220.44" width="32.7" height="75.52"/><rect class="cls-4" x="167.34" y="196.74" width="13.27" height="11.42"/><rect class="cls-4" x="182.85" y="219.2" width="34.86" height="2.79"/><rect class="cls-4" x="209.79" y="252.83" width="36.66" height="43.13"/><rect class="cls-4" x="91.3" y="217.75" width="29.82" height="78.21"/><rect class="cls-4" x="65.42" y="256.73" width="39.23" height="39.23"/><rect class="cls-4" x="22.22" y="250.31" width="24.54" height="45.65"/><rect class="cls-4" x="41.99" y="281.66" width="58" height="14.3"/><rect class="cls-4" y="277.04" width="29.73" height="18.92"/><rect class="cls-4" x="121.12" y="267.1" width="46.21" height="28.86"/><rect class="cls-4" x="256.69" y="283.53" width="71.99" height="12.43"/><rect class="cls-4" x="384.32" y="283.53" width="71.99" height="12.43"/><polygon class="cls-4" points="325.87 247.02 298.51 247.02 286.94 289.74 325.87 289.74 325.87 247.02"/><rect class="cls-4" x="338.52" y="184.86" width="0.76" height="47.39"/><rect class="cls-4" x="342.33" y="200.9" width="1.02" height="27.97"/><rect class="cls-4" x="336.88" y="205.85" width="13.84" height="13.84"/><rect class="cls-4" x="334.54" y="204.78" width="18.33" height="1.24"/><rect class="cls-4" x="347.64" y="255.93" width="44.73" height="40.03"/><rect class="cls-4" x="383.81" y="211.87" width="28.74" height="77.23"/><rect class="cls-4" x="496.05" y="226.39" width="45.91" height="69.57"/><rect class="cls-4" x="481.65" y="270.33" width="52.35" height="25.64"/><rect class="cls-4" x="539.42" y="286.79" width="34.04" height="9.18"/><rect class="cls-4" x="591.85" y="270.33" width="55.34" height="25.64"/><rect class="cls-4" x="613.9" y="203.21" width="68.87" height="92.75" transform="translate(1296.66 499.17) rotate(180)"/><rect class="cls-4" x="612.12" y="199.65" width="74.66" height="3.56" transform="translate(1298.9 402.85) rotate(180)"/><rect class="cls-4" x="649.45" y="189.99" width="30.26" height="18.81" transform="translate(1329.16 398.79) rotate(180)"/><rect class="cls-4" x="634.48" y="189.99" width="5.08" height="11.44" transform="translate(1274.04 391.42) rotate(180)"/><rect class="cls-4" x="623.81" y="189.99" width="5.59" height="11.44" transform="translate(1253.2 391.42) rotate(180)"/><rect class="cls-4" x="730.1" y="160.5" width="54.51" height="135.46" transform="translate(1514.72 456.46) rotate(180)"/><rect class="cls-4" x="728.56" y="158.17" width="57.61" height="3.83" transform="translate(1514.72 320.16) rotate(180)"/><rect class="cls-4" x="731.94" y="153.27" width="50.85" height="18.2" transform="translate(1514.72 324.73) rotate(180)"/><rect class="cls-4" x="758.76" y="145.82" width="20.14" height="19.88" transform="translate(1537.65 311.52) rotate(180)"/><polygon class="cls-4" points="767.24 151.43 778.89 151.43 778.89 140.96 770.53 140.96 767.24 151.43"/><rect class="cls-4" x="773.07" y="132.27" width="1.13" height="23.31" transform="translate(1547.26 287.85) rotate(180)"/><path class="cls-4" d="M772.62,131.06a1,1,0,1,0,1-1.21A1.12,1.12,0,0,0,772.62,131.06Z"/><rect class="cls-4" x="777.15" y="240.04" width="24.4" height="55.92"/><rect class="cls-4" x="707.66" y="212.77" width="27.82" height="83.19"/><polygon class="cls-4" points="721.59 295.96 682.39 295.96 682.39 251.47 715.47 266.12 721.59 295.96"/><rect class="cls-4" x="793.54" y="271.8" width="59.85" height="24.16"/><rect class="cls-4" x="831.28" y="199.5" width="34.77" height="96.46"/><rect class="cls-4" x="857.92" y="277.95" width="57.6" height="18.01"/><rect class="cls-4" x="829.5" y="197.73" width="38.14" height="3.16"/><rect class="cls-4" x="860.63" y="184.12" width="0.76" height="19.44"/><rect class="cls-4" x="855.55" y="186.58" width="0.76" height="15.59"/><polygon class="cls-4" points="878.92 235.84 863.42 235.84 863.42 280.03 885.53 280.03 878.92 235.84"/></g></g></svg>